<svg version="1.2" xmlns="http://www.w3.org/2000/svg" viewBox="0 0 482 800" width="482" height="800">
	<defs>
		<radialGradient id="g1" cx="0" cy="0" r="1" gradientUnits="userSpaceOnUse" gradientTransform="matrix(-2.915,.019,-0.019,-2.915,264.731,377.117)">
			<stop offset=".423" stop-color="#a10f10"/>
			<stop offset=".725" stop-color="#fb6713"/>
			<stop offset=".99" stop-color="#fb9e13"/>
		</radialGradient>
		<radialGradient id="g2" cx="0" cy="0" r="1" gradientUnits="userSpaceOnUse" gradientTransform="matrix(-40.881,.261,-0.261,-40.881,303.804,408.475)">
			<stop offset=".423" stop-color="#a10f10"/>
			<stop offset=".725" stop-color="#fb6713"/>
			<stop offset=".99" stop-color="#fb9e13"/>
		</radialGradient>
		<radialGradient id="g3" cx="0" cy="0" r="1" gradientUnits="userSpaceOnUse" gradientTransform="matrix(84.401,0,0,84.401,203.135,433.331)">
			<stop offset=".423" stop-color="#a10f10"/>
			<stop offset=".725" stop-color="#fb6713"/>
			<stop offset=".99" stop-color="#fb9e13"/>
		</radialGradient>
		<radialGradient id="g4" cx="0" cy="0" r="1" gradientUnits="userSpaceOnUse" gradientTransform="matrix(36.012,-5.222,5.222,36.012,184.144,419.041)">
			<stop offset=".423" stop-color="#a10f10"/>
			<stop offset=".725" stop-color="#fb6713"/>
			<stop offset=".99" stop-color="#fb9e13"/>
		</radialGradient>
		<radialGradient id="g5" cx="0" cy="0" r="1" gradientUnits="userSpaceOnUse" gradientTransform="matrix(.56,-0.004,.004,.56,141.351,337.515)">
			<stop offset=".001" stop-color="#f1b88f"/>
			<stop offset=".589" stop-color="#e6343a"/>
			<stop offset="1" stop-color="#981a2e"/>
		</radialGradient>
	</defs>
	<style>
		.s0 { fill: #ff0000 } 
		.s1 { fill: url(#g1) } 
		.s2 { fill: #000000 } 
		.s3 { fill: #efeaea } 
		.s4 { fill: #ffffff } 
		.s5 { opacity: .4;mix-blend-mode: multiply;fill: #ccc6c2 } 
		.s6 { opacity: .6;mix-blend-mode: multiply;fill: #ccc6c2 } 
		.s7 { fill: url(#g2) } 
		.s8 { fill: url(#g3) } 
		.s9 { fill: url(#g4) } 
		.s10 { fill: #ffa608 } 
		.s11 { fill: #231f20 } 
		.s12 { fill: #c21c00 } 
		.s13 { fill: #ffc50d } 
		.s14 { fill: #fdef6c } 
		.s15 { opacity: .7;fill: #fffab8 } 
		.s16 { fill: #f6891f } 
		.s17 { fill: #e51f26 } 
		.s18 { mix-blend-mode: multiply;fill: #9d9fa2 } 
		.s19 { fill: #7c1922 } 
		.s20 { fill: url(#g5) } 
		.s21 { fill: #6acce1 } 
		.s22 { fill: #515254 } 
		.s23 { fill: #848688 } 
		.s24 { fill: #7994cc } 
		.s25 { fill: #a1d2f1 } 
		.s26 { fill: #fef1f6 } 
		.s27 { opacity: .52;mix-blend-mode: screen;fill: #ffffff } 
	</style>
	<g id="_Artboards_">
	</g>
	<g id="Layer 1">
		<g id="&lt;Group&gt;">
			<g id="&lt;Group&gt;">
				<g id="&lt;Group&gt;">
					<g id="&lt;Group&gt;">
						<g id="&lt;Group&gt;">
							<path id="&lt;Path&gt;" class="s0" d="m69.57 548.15c0.57 4.86 2.66 10.04 6.29 13.76-5.01 10.7-6 23.34-2.45 34.59 1.72 5.4 4.8 10.22 9.04 14.19-2.55 9.4-2.04 19.47 1.56 28.41 3.73 9.3 11.74 16.08 21.61 18.8-1.05 4.11-1.56 8.42-1.48 12.8 0.34 19.42 16.06 34.37 31.49 40.57 5.2 2.09 10.94 3.13 17.08 3.09 11.38-0.07 22.78-3.84 31.4-10.35 6.62 4.6 15.25 7.11 24.68 7.05 10.23-0.06 20.11-3.15 27.83-8.44 7.43 11.64 20.31 18.87 34.73 18.78 3.2-0.02 6.46-0.4 9.68-1.14 9.57-2.17 18.75-8.67 24.82-17.27 5.04 1.5 10.44 2.24 16.15 2.21 16.96-0.11 33.97-7.06 45.48-18.59 12.17-12.17 19.59-29.86 19.38-46.16-0.07-4.86-1.41-10.38-3.69-15.66 8.07-3.35 15.11-8.7 20.07-15.4 7.64-10.31 10.06-22.88 6.48-33.61-2.92-8.81-8.09-14.15-14.07-17.83q3.48-2.53 6.4-6.54c7.37-10.08 10.69-25.78 7.58-35.74-5.09-16.26-19.32-26.7-36.26-26.59-6.19 0.04-12.31 1.58-17.83 4.44-4.06-4.24-9.63-6.53-15.84-6.49q-0.95 0-1.89 0.08c-4.05-11.37-15.59-17.85-25.67-20.18-2.63-0.61-5.3-0.91-7.91-0.89-11.76 0.07-22.48 6.7-28.93 17.07q-0.98 0.96-1.89 2.01c-0.92-0.4-3.54 5.28-3.72 2.79l-1.05 0.31q-0.19-2.47-0.37-4.9c-0.35-4.81-1.65-9.1-1.71-13.95q-0.12-9.5-0.42-18.99-0.59-18.97-1.99-37.91c-1.61 1.74-1.76 5.78-2.56 8.1-1.28 3.72-2.24 7.88-4.18 11.32 0.56-0.98 0.1-3.71 0.11-4.86q0.02-2.85-0.02-5.71-0.06-5.47-0.17-10.95c-0.05-2.61-0.02-5 0.21-7.62 0.94-10.78 0.4-17.25 4.36-45.7-5.22 12.25-8.91 21.51-9.95 25.66-0.92-10.18-2.55-30.48-2.67-46.1-1.24 26.05-5.39 40.01-8.65 58.94-0.3-1.68-5.78-23.46-6.12-24.15-0.15 30.13-0.43 39.16-1.61 41.45-0.03 0.07-5.57-19.59-6.32-23.09-0.71-3.37-5.95-28.14-5.95-28.14 0 0-0.02 17.97 0 19.19-0.27-2.29-3.19-11.19-4.06-13.33-0.75-1.85-3.16-7.03-3.16-7.03 1.94 7.94 2.75 17.07 3.79 25.2 0.93 7.34 1.48 14.72 2.4 22.07 0.43 3.44 1.03 6.81 1.34 10.27 0.3 3.29 1.31 6.43 1.26 9.83-0.13-2.27-2.19-4.91-3.1-7-0.75-1.71-1.36-3.53-1.98-5.29 1.09 7.34 2.4 14.42 2.22 21.92-0.18 7.67-1.2 15.29-1.75 22.93-0.31 4.28-0.86 8.53-1.56 12.75-0.57 3.47-0.95 7.2-1.82 10.56-1.13 4.34-2.6 8.62-3.89 12.92q-0.58 1.93-1.17 3.86c-0.24 0.83-0.45 2.79-1.23 3.21-0.77-1.06-0.96-3.12-1.46-4.42q-0.87-2.32-2.06-4.49c-1.6-2.94-3.6-5.66-5.9-8.09q-2.2-2.3-4.75-4.23-1.04-1.28-2.17-2.47c-5.4-5.7-12.3-10.06-19.91-12.08q-0.11-0.03-0.22-0.06c-3.51-0.91-7.15-1.36-10.83-1.34-12.48 0.08-25.04 5.53-34.46 14.96-5.08 5.08-9.69 13.37-11.35 22.14q-1.65-0.13-3.41-0.12c-2.35 0.01-4.89 0.23-7.34 0.63-9.77 1.61-19.02 7.55-26.02 16.74-6.34 8.33-9.5 18.53-8.47 27.3z"/>
							<path id="&lt;Path&gt;" class="s1" d="m264.4 381.23l0.66-8.22c-0.32 2.74-0.63 5.5-0.66 8.22z"/>
						</g>
						<g id="&lt;Group&gt;">
							<g id="&lt;Group&gt;">
								<path id="&lt;Path&gt;" class="s2" d="m242.57 441.76c0.01-3.49-0.12-7-0.25-10.5-0.16 9.18 0.02 18.52 0.43 27.99q-0.18-8.82-0.18-17.49z"/>
								<path id="&lt;Path&gt;" class="s3" d="m236.86 579.97c22.61-0.88 40.55-12.8 54.35-28.62q0 0.06 0 0.14c0.06 0.9 1.33 0.02 1.4-0.5q0.15-0.86 0.36-1.71 0.73-0.86 1.45-1.73c0.2-0.26 0.38-0.58 0.23-0.93q-0.09-0.2-0.17-0.41c-0.14-0.3-0.37-0.29-0.6-0.16 0.14-0.67 0.13-1.35-0.13-2.06-0.4-1.09-1.91-1.7-2.91-2.06q-0.76-0.27-1.55-0.25c-13.47-11.95-15.7-32.44-18.5-47.81-2.34-12.83-3.05-25.55-3.19-37.99-0.07-7.39 0.71-15.79-0.4-23.31-0.47 4.76-0.86 9.56-1.42 14.36-0.58 5.05-1.19 10.26-4.57 14.53-0.32 0.4-1.2 0.79-1.68 0.36q-0.39-0.34-0.7-0.72-0.01 0.01-0.01 0.02c-0.29 0.49-0.65-0.36-0.99-1.54-1.68-3.37-0.9-7.78-0.86-11.3-0.09-7.19-1.03-14.37-1.33-21.4-1.02-24.17-0.04-47.37-0.65-69.66q0-2.73-0.16-5.45c-0.04 8.81-0.84 17.67-1.73 26.78-0.72 7.37-1.01 15.27-5.13 22.14-0.28 0.48-1.2 1.06-1.8 0.58-3.91-3.16-3.88-8.5-4.53-12.75-0.13 0.86-0.24 1.53-0.25 1.85-0.29 7 0.14 14.07-0.1 21.22-0.14 3.94-0.32 9.74-3.97 12.73-2.86 2.35-4.26-1.71-4.83-3.81-2.05-7.56-1.98-15.53-3.06-23.05q-0.51-3.54-1.03-7.05c-0.98-4.97-1.85-9.93-2.75-14.84 1.06 12.67 1.18 25.74 1.02 39.1q0.03 0.32 0.05 0.63c0.96 14.43 1.05 29.21-0.35 44.39-2.74 29.91-11.88 60.49-28.85 89.53-0.62-1.46-4.47 0.07-4.57 2.57-0.82 21.96 26.06 28.87 43.91 28.18z"/>
								<path id="&lt;Path&gt;" class="s2" d="m254.32 392.05c-0.02-0.3-0.23-0.39-0.49-0.35-1.24 10.63 0.25 21.95 0.38 32.95 0.14 12.69 0.54 25.67 1.36 38.91 0.83 13.08 2.41 26.43 4.33 40.01 1.41 10.01 3.35 20.28 8.03 29.73-1.03-3.5-1.64-7.19-2.43-10.53-1.41-5.99-2.33-12.02-3.2-17.99-1.95-13.43-3.27-26.66-4.4-39.59-2.21-25.38-2.2-49.76-3.58-73.14z"/>
								<path id="&lt;Path&gt;" class="s2" d="m246.04 545.93c0.63-16.74 2.64-32.11 1.61-48.22-0.06-0.99-1.09 0.01-1.09 0.69 0.03 15.49-1.63 31.59-1.07 47.8 0.01 0.49 0.54 0.07 0.55-0.27z"/>
								<path id="&lt;Path&gt;" class="s2" d="m227.56 524.69q-0.42 1.12-0.87 2.25-0.4 1.6-0.82 3.22c-0.09 0.39 0.51 0.2 0.59-0.06q1.3-3.98 2.52-7.93-0.72 1.27-1.42 2.52z"/>
								<path id="&lt;Path&gt;" class="s2" d="m231.19 514.74c4.1-14.41 7.08-28.55 8-42.99 0.92-14.17 0.46-28.11-0.94-41.63q0.1 4.5 0.23 9c0.36 11.32 0.29 22.93-0.77 34.67-1.04 11.35-2.99 22.78-5.55 34.36-0.64 2.9-1.34 5.82-2.14 8.73q0.59-1.07 1.17-2.14z"/>
								<path id="&lt;Path&gt;" class="s2" d="m234.16 450.04q0.45-10.71 0.11-21.16c-0.3-8.62-0.17-17.26-1.08-25.63-0.46 0.12-0.99 0.61-0.97 1.01 0.69 14.87 1.97 30.1 1.94 45.78z"/>
								<path id="&lt;Path&gt;" class="s2" d="m227.72 471.9c-0.49 0.23-0.99 0.76-0.99 1.19-0.12 20.84-5.24 40.38-14.53 60.65q3.52-4.93 6.34-10.15c3.85-8.07 6.91-16.51 8.77-24.97 1.1-8.96 1.08-17.94 0.41-26.72z"/>
								<path id="&lt;Path&gt;" class="s2" d="m228.65 446.05c0.07-23.75-2-46.81-5.8-68.33-0.15-0.9-1.16-0.22-1.35 0.48 3.76 21.57 6.24 44.21 7.15 67.85z"/>
								<path id="&lt;Path&gt;" class="s2" d="m209.84 524.81c3.82-9.54 7.9-18.8 10.63-28.38 1.51-5.31 2.68-10.67 3.61-16.02 1.62-16.73 1.91-33 1.03-48.79 0.25 9.57 0.11 19.32-0.7 29.28-0.9 11.13-2.77 22.4-5.22 33.78-2.19 10.14-6.56 19.89-9.62 30.16-0.05 0.17 0.22 0.08 0.27-0.03z"/>
								<path id="&lt;Path&gt;" class="s2" d="m261.44 473.01c1.16 11.19 1.88 23.1 5.36 34.38 0.05 0.17 0.37-0.04 0.34-0.18-3.19-11.46-3.54-23.44-4.48-34.74-1.07-12.87-1.58-25.43-1.12-37.78q0.13-3.3 0.27-6.57c-0.63-9.19 0.14-18.36 0.6-27.22 0.47-9.05 1.3-17.94 2.12-26.69-2.04 9.03-2.07 18.4-2.83 27.88-0.87 10.85-1.69 21.9-2.04 33.18-0.38 12.36 0.46 24.91 1.78 37.74z"/>
								<path id="&lt;Path&gt;" class="s2" d="m247.48 425.22c0.1 7.36-0.15 15.02 0.17 22.68q0.46 2.01 0.92 4.03c-0.19-5.03-0.11-10.04-0.05-15.01q-0.61-5.89-1.04-11.7z"/>
								<path id="&lt;Path&gt;" class="s2" d="m270.15 496.16c1.64 9.6 3.93 19.31 7.64 28.76 0.19 0.48 0.94 0.13 0.78-0.29-3.48-9.49-5.64-19.14-6.95-28.76-1.29-9.47-1.83-18.84-3.18-28.02-0.08-0.53-0.97-0.21-0.96 0.23 0.12 9.25 1.06 18.63 2.67 28.08z"/>
							</g>
							<g id="&lt;Group&gt;">
								<g id="&lt;Group&gt;">
									<path id="&lt;Path&gt;" class="s2" d="m78.09 547.71c0.62 5.32 3.81 11.14 9.24 12.15-7.13 9.97-9.4 23.62-5.65 35.47 1.92 6.06 5.9 10.74 10.9 14.08-3.76 8.94-4.08 19.33-0.35 28.6 4.15 10.34 14.99 15.8 25.57 15.45-3.16 5.85-4.69 12.66-4.57 19.43 0.27 15.57 13.45 28.54 27.02 33.99 13.3 5.35 30.85 1.96 41.95-6.69 1.48-1.15 2.88-2.51 4.19-3.99 12.74 14.85 43.34 12.54 56.05-3.87 5.07 17.17 21.95 27.57 40.7 23.31 9.71-2.21 19.01-10.08 23.54-19.55 18.86 8.83 45.28 2.62 60.37-12.49 10.55-10.56 17.56-26.23 17.36-41.18-0.09-6.26-2.95-14.32-7.49-20.7 10.09-1.94 19.64-7.48 25.67-15.62 5.64-7.62 8.54-17.62 5.44-26.93-3.39-10.16-10.48-14.55-20.05-18.11 0.35-1.83 0.38-3.79-0.04-5.93q-0.03-0.11-0.05-0.21c15.11 0.86 23.59-25.4 19.99-36.9-6.82-21.82-32.63-27.93-49.56-14q-1.01-2.44-2.99-4.8c-4.78-5.63-12.99-5.89-19.11-2.61q0.04-2.42-0.48-4.92c-2.06-9.9-11.96-15.7-21.05-17.8-16.24-3.75-29.41 8.01-33.03 22.67q-0.26-0.93-0.49-1.88c-1.16 6.27-0.45 12.94 1.27 18.97 0.13 0.44 0.17 0.86 0.24 1.29 1.06 1.58 1.53 3.14 1.48 4.61 0.84 1.26 1.71 2.48 2.68 3.59-6.79 3.05-12.24 9.67-15.48 17.26-2.05-2.41-5.2-4.01-8.91-4.73-8.47-1.64-17.51 5.08-23.04 10.91-0.46-4.91-2.21-9.69-4.66-12.61-4.55-5.47-11.46-7.25-18.21-7.82-6.62-0.58-11.67 3.2-16.1 7.51-0.63-4-3.01-7.04-6.4-8.73 3.59-4.51 4.08-13.79 4.03-17.9-0.15-14.76-12.67-28.72-26.39-32.28-13.87-3.6-28.59 1.95-38.41 11.77-6.02 6.02-11.13 17.81-9.6 27.38-4.51-3.31-12.14-2.99-17.12-2.17-8.74 1.43-16.22 7.15-21.43 13.98-4.6 6.05-7.93 14.33-7.03 22z"/>
									<path id="&lt;Path&gt;" class="s4" d="m86.88 528.97c5.58-9.64 27.19-21.73 37.47-12.23q0.75 2.32 2.19 4.31-0.13-0.77-0.19-1.55c-0.09-1.59-0.04-3.15 0.08-4.7-5.98-23.08 20.01-43.12 43.04-36.61 10.12 2.85 17.4 11.8 21.65 20.93 2.06 4.41 5.83 19.3 1.56 25.22q-2.07-0.74-4.47-0.88 1.22 0.86 2.34 1.83c2.23 1.58 4.08 3.68 5.23 6.15 2.45 4.06 3.51 8.63 2.28 13 1.47-2.47 2.43-5.21 2.53-8.09q0-0.06 0-0.12c6.6-5.13 13.95-6.59 21.16-4.15 5.17 1.2 9.86 4.35 12.81 9.06 2.31 3.66 3.81 7.86 3.91 12.24 0.03 1.07-0.09 2.07-0.27 3.04 0.95-2.39 1.37-5.12 1.31-7.89 0.08-0.05 0.15-0.08 0.22-0.14q2.63-2.13 5.39-3.85c3.92-4.03 9.33-6.42 15.22-5.45 3.46 0.57 7.12 1.51 9.63 4.17 1.75 1.86 2.73 4.07 3.77 6.24 0.41-2.84-0.05-5.29-1.16-7.33 7.09-10.74 15.04-18.93 29.13-15.21 13.13 3.46 16.73 18.55 8.57 28.68-0.23 0.28 0.04 0.56 0.29 0.28 8.21-9.37 6.91-24.97-4.6-31.43-5.97-3.34-11.61-3.78-16.63-2.27-2.1-7.11-4.29-14.08-6.35-21.06 3.83-12.87 11.34-22.88 24.56-22.74 6.5-1.24 13.4 0.23 18.79 4.91 4.22 3.66 8.08 8.73 8.05 14.63-0.01 3.03-0.3 6.28-1.78 9.01-0.63 1.17-1.43 2.27-2.24 3.39 3.07-2.97 4.95-6.66 5.59-10.7 3.32-0.82 6.54-0.86 9.56 0.05 4.52 0.44 8.76 3.22 10.78 7.59 1.74 3.78 2.23 7.54 2.05 11.32 1.28-4.3 1.81-8.56 0.64-12.69 13.25-6.62 27.36-6.61 38.44 4.48 11.2 11.21 8.18 40.99-9.95 42.93-1.69-5.52-5.97-10.59-11.79-10.61 4.66 3.33 8.25 7.95 8.86 13.81 0.58 5.47-0.46 11.12-3.03 15.93 2.37-2.83 4.55-5.71 5.76-8.96 4.65 3.77 9.59 7.47 13.07 12.37 5.71 8.04 5.13 18.99 0.62 27.33-5.04 9.33-14.77 15.01-25.11 17.12-1.98-2.53-4.24-4.71-6.69-6.31q1.11 1.07 2.13 2.25c1.63 1.9 2.86 3.81 3.85 5.74q0.08-0.02 0.17-0.02c3.89 5.95 6.3 13.34 6.93 19.16 1.59 14.76-7.51 30.22-17.51 40.27-11.45 11.51-29.12 16.36-44.87 13.2q-1.23-0.26-2.39-0.6c-3.93-0.46-7.85-1.61-11.51-3.34-7.24-3.41-12.59-8.33-17.5-13.78 3.56 8.46 9.27 14.4 16.19 18.15-5.67 9.98-17.73 17.21-29.08 17.54-14.86 0.43-25.84-10.48-31.11-23.28 1.73-2.98 2.92-6.35 3.39-10.09-1.6 4.37-4.51 8.63-7.45 11.44-1.52 1.46-3.15 2.68-4.86 3.71-6.91 5.25-15.9 7.99-24.68 7.57-6.43-0.3-11.61-2.49-15.82-5.89-2.19-1.4-4.18-3.05-5.86-4.82-3.54-3.76-6.27-7.98-8.5-12.45-0.17 5.65 1.09 10.4 3.39 14.26-1.64 1.82-3.38 3.47-5.23 4.87-9.43 7.13-24.76 7.69-35.67 4.4-15.82-4.75-26.72-19.84-27.21-34.64-0.17-1.47-0.08-2.92 0.18-4.34 0.32-2.94 1.11-5.82 2.36-8.56 1.28-3.32 3.29-6.24 5.47-9.09q0.31-0.45 0.62-0.91-2.63 2.35-4.64 5.19c-9.59-0.3-18.96-6.07-23.26-15.22-3.74-7.92-3.7-16.1-1.14-23.54 3.56 1.87 7.46 3.14 11.43 3.81 2.38 0.39 5.02 0.51 7.65 0.32q-3.5-0.6-6.87-1.9c-6.45-1.77-11.73-5.57-15.23-10.62q-1.65-1.91-2.96-4.02-1.07-1.43-1.97-2.98c-8.62-14.85-2.37-32.86 10.03-42.82q2.49-2.73 5.36-5.21c-6.01 2.19-10.97 6-14.72 10.8-10.48-5.91-6.1-21.48-1.4-29.61z"/>
									<path id="&lt;Path&gt;" class="s5" d="m290.13 680.35c-3.97 3.12-9.05 4.83-14 3.97-9.58-1.64-14.79-9.49-19.41-17.29-4.79 7-12.43 10-20.86 10.18 3.09 3.79 4.83 8.27 4.98 12.98 2.8-2.8 5.5-6.82 7.02-10.97-0.47 3.74-1.66 7.11-3.39 10.09q1.27 3.07 2.97 5.94c5.19-4.07 10.89-6.99 15.24-7.62 10.64-1.54 23.14 3.65 26.38 14.77q0.93 3.24 0.96 6.28c6.08-3.14 11.4-7.93 14.64-13.63-5.93-3.22-10.97-8.06-14.53-14.7z"/>
									<path id="&lt;Path&gt;" class="s5" d="m312.18 642.9c-2.73 1.18-5.6 2.23-8.5 3.07q0.22 0.28 0.43 0.57c4.06 6.02 3.78 15.18-0.88 20.96-2.06 2.57-4.42 4.07-6.94 4.85-1.13 2.74-2.98 5.24-5.28 7.25 4.24 4.36 8.95 8.24 14.96 11.08 3.66 1.73 7.58 2.88 11.51 3.34q1.16 0.34 2.39 0.6 0.94 0.18 1.88 0.32c-14.74-12.32-19.79-35.55-9.57-52.04z"/>
									<path id="&lt;Path&gt;" class="s5" d="m185.83 581.93c-5.27 3.47-13.15 4.84-20.14 4.99-0.58 10.27-7.68 21.01-17.24 26.66-11.12 6.57-24.61 5.5-37.47 1.81q-2.08-0.07-3.99-0.38c-3.97-0.67-7.87-1.94-11.43-3.81-1.28 3.72-1.93 7.63-1.79 11.59 2.06-1.26 4.24-2.2 6.22-2.72 9.71-2.55 19.26 5.29 19.68 15.19 0.19 4.47-1.16 9.28-5.02 11.96-0.76 0.52-1.55 0.93-2.35 1.29 2.47 0.85 5.05 1.36 7.66 1.45q2.01-2.84 4.64-5.19-0.31 0.46-0.62 0.91c-2.18 2.85-4.19 5.77-5.47 9.09-1.25 2.74-2.04 5.62-2.36 8.56-0.26 1.42-0.35 2.87-0.18 4.34 0.26 7.78 3.41 15.63 8.62 22.02-3.06-13.29-1.06-27.51 8.03-40.89 11.38-16.77 29.1-20.38 43.78-14.1-0.59-5.98 0.37-11.98 3.47-17.47 7.4-13.13 20.62-14.09 31.09-8.32 0.33-3.2 1.38-6.17 2.94-8.93-10.63 0.14-23.24-7.97-28.07-18.05z"/>
									<path id="&lt;Compound Path&gt;" fill-rule="evenodd" class="s5" d="m86.88 528.97c5.58-9.64 27.19-21.73 37.47-12.23q0.75 2.32 2.19 4.31-0.13-0.77-0.19-1.55c-0.09-1.59-0.04-3.15 0.08-4.7-5.98-23.08 20.01-43.12 43.04-36.61 10.12 2.85 17.4 11.8 21.65 20.93 2.06 4.41 5.83 19.3 1.56 25.22q-2.07-0.74-4.47-0.88 1.22 0.86 2.34 1.83c2.23 1.58 4.08 3.68 5.23 6.15 2.45 4.06 3.51 8.63 2.28 13 1.47-2.47 2.43-5.21 2.53-8.09q0-0.06 0-0.12c6.6-5.13 13.95-6.59 21.16-4.15 5.17 1.2 9.86 4.35 12.81 9.06 2.31 3.66 3.81 7.86 3.91 12.24 0.03 1.07-0.09 2.07-0.27 3.04 0.95-2.39 1.37-5.12 1.31-7.89 0.08-0.05 0.15-0.08 0.22-0.14q2.63-2.13 5.39-3.85c3.92-4.03 9.33-6.42 15.22-5.45 3.46 0.57 7.12 1.51 9.63 4.17 1.75 1.86 2.73 4.07 3.77 6.24 0.41-2.84-0.05-5.29-1.16-7.33 7.09-10.74 15.04-18.93 29.13-15.21 11.16 2.94 15.4 14.28 11.42 23.83-0.1-3.69-1.88-7.05-4.77-9.79-4.22-3.98-10.98-2.46-15.61-0.33-10.25 4.69-21.56 17.46-16.85 29.45 0.89 2.28 2.74 3.69 4.88 4.36 0.49 1.34 1.7 2.42 3.51 2.29 11.28-0.77 24.53-10.82 28.17-21.5 0.33-0.99 0.51-1.95 0.6-2.91 5.26-9.37 3.06-22.17-7.09-27.87-5.97-3.34-11.61-3.78-16.63-2.27-2.1-7.11-4.29-14.08-6.35-21.06 3.83-12.87 11.34-22.88 24.56-22.74 6.5-1.24 13.4 0.23 18.79 4.91 4.22 3.66 8.08 8.73 8.05 14.63-0.01 3.03-0.3 6.28-1.78 9.01-0.63 1.17-1.43 2.27-2.24 3.39 3.07-2.97 4.95-6.66 5.59-10.7 3.32-0.82 6.54-0.86 9.56 0.05 4.52 0.44 8.76 3.22 10.78 7.59 1.74 3.78 2.23 7.54 2.05 11.32 1.28-4.3 1.81-8.56 0.64-12.69 13.25-6.62 27.36-6.61 38.44 4.48 11.2 11.21 8.18 40.99-9.95 42.93-1.69-5.52-5.97-10.59-11.79-10.61 4.66 3.33 8.25 7.95 8.86 13.81 0.58 5.47-0.46 11.12-3.03 15.93 2.37-2.83 4.55-5.71 5.76-8.96 4.65 3.77 9.59 7.47 13.07 12.37 2.58 3.63 3.82 7.86 4.05 12.17-8.01-5.1-20.07-6.46-28.36-2.05-12.76 6.79-7.19 23.62 0.83 32q0.88 0.9 1.8 1.63c-0.93 0.25-1.87 0.51-2.81 0.7-1.98-2.53-4.24-4.71-6.69-6.31q1.11 1.07 2.13 2.25c1.63 1.9 2.86 3.81 3.85 5.74q0.08-0.02 0.17-0.02c3.89 5.95 6.3 13.34 6.93 19.16 0.76 7.08-0.95 14.31-4.02 21.04-0.46-5.53-2.02-11.1-5.04-16.57-6.55-11.86-20.55-10.7-32.32-8.18 4.65-14.17-1.3-28.52-15.25-35.96-13.6-7.25-25.35 1.58-33.59 12.15-2.88-21.35-21.11-33.48-44.54-32.01-5.25 0.33-10.59 1.58-15.5 3.6 3.91-7.27 4.17-16.16-1.56-24.14-6.96-9.67-23.32-9.99-34.64-4.27-1.1-25.18-44.64-45.55-63.28-18.24-4.84 7.12-4.79 15.94-1.76 24.09-10.52 1.02-21.04 5.18-29.55 10.22-6.97 4.11-13.86 9.93-16.46 16.07-3.7-13.22 2.36-27.49 12.9-35.96q2.49-2.73 5.36-5.21c-6.01 2.19-10.97 6-14.72 10.8-10.48-5.91-6.1-21.48-1.4-29.61zm227.82 34.03c-1.88 11.39 5.94 19.93 15.65 23.03 0.46 0.55 1.11 0.97 1.98 1.14 15.43 3.06 31.85-1.27 38.34-16.81 4.92-11.8 0.25-25.66-11.45-31.04-17.77-8.16-41.44 5.01-44.52 23.68z"/>
									<path id="&lt;Path&gt;" class="s6" d="m347.24 606.79c3.15 5.03 3.79 9.84 3.37 14.82 14.77 4.34 27.21 14.76 31.23 29.23 0.57-3.22 0.76-6.47 0.41-9.69-0.63-5.82-3.04-13.21-6.93-19.16q-0.09 0-0.17 0.02c-0.99-1.93-2.22-3.84-3.85-5.74q-1.02-1.18-2.13-2.25c2.45 1.6 4.71 3.78 6.69 6.31 0.94-0.19 1.88-0.45 2.81-0.7q-0.92-0.73-1.8-1.63-0.8-0.84-1.55-1.78c-8.84-6.71-15.65-15.45-18.85-26.35-8.64 3.91-18.97 4.88-28.69 4.51 7.23 2.19 15.38 5.92 19.46 12.41z"/>
									<path id="&lt;Path&gt;" class="s6" d="m127.54 549.88c-9.81-2.79-20.11-1.54-29.79 2.99q-0.05 0.06-0.11 0.12c-8.29 6.66-13.78 16.9-13.96 27.41 10.34-15.17 26.45-26.99 43.86-30.52z"/>
									<path id="&lt;Path&gt;" class="s5" d="m88.28 558.58c1.31-1.67 2.8-3.16 4.4-4.56-1.08-0.52-1.95-1.55-2.08-2.71-3.22-29.07 21.43-30.71 39.02-19.01 0.13-16.45 7.31-34.49 17.57-41.38 21.62-14.49 39.97 16.79 27.68 30.11 10.55 5.85 17.89 16.46 19.53 28.91q0.32 0.9 0.58 1.8c4.78-5.41 10.54-9.22 17.36-9.35 15.02-0.3 21.74 10.19 24.62 22.44 2.64-5.84 6.57-10.68 12.7-12.72 10.08-3.37 18.74-0.71 23.91 5.79 2.36-9.35 8.4-18.33 15.26-23.48 5.21-3.92 11.46-5.57 17.1-5.05-0.25-0.38-0.51-0.72-0.76-1.11q-1.6-0.8-3.46-1.3c-14.09-3.72-22.04 4.47-29.13 15.21 1.11 2.04 1.57 4.49 1.16 7.33-1.04-2.17-2.02-4.38-3.77-6.24-2.51-2.66-6.17-3.6-9.63-4.17-5.89-0.97-11.3 1.42-15.22 5.45q-2.76 1.72-5.39 3.85c-0.07 0.06-0.14 0.09-0.22 0.14 0.06 2.77-0.36 5.5-1.31 7.89 0.18-0.97 0.3-1.97 0.27-3.04-0.1-4.38-1.6-8.58-3.91-12.24-2.95-4.71-7.64-7.86-12.81-9.06-7.21-2.44-14.56-0.98-21.16 4.15q0 0.06 0 0.12c-0.1 2.88-1.06 5.62-2.53 8.09 1.23-4.37 0.17-8.94-2.28-13-1.15-2.47-3-4.57-5.23-6.15q-1.12-0.97-2.34-1.83 2.4 0.14 4.47 0.88c4.27-5.92 0.5-20.81-1.56-25.22-4.25-9.13-11.53-18.08-21.65-20.93-23.03-6.51-49.02 13.53-43.04 36.61-0.12 1.55-0.17 3.11-0.08 4.7q0.06 0.78 0.19 1.55-1.44-1.99-2.19-4.31c-10.28-9.5-31.89 2.59-37.47 12.23-4.7 8.13-9.08 23.7 1.4 29.61z"/>
									<path id="&lt;Path&gt;" class="s6" d="m302.1 522.73c-5.45-11.19-8.08-25.46 2.25-29.07 15.14-5.28 22.17 9.42 24.16 23.82 0.87-1.4 1.84-2.69 2.98-3.81 5.82-5.71 17.04-4.09 21.98 2.13 3.36 4.24 5.65 9.74 6.62 15.46 2.63-6.34 7.15-11.61 13.31-13.81 10.41-3.71 23.29 1.61 28 11.78 1 2.14 1.63 4.31 1.98 6.46 1.73-9.17-0.28-19.6-5.95-25.28-11.08-11.09-25.19-11.1-38.44-4.48 1.17 4.13 0.64 8.39-0.64 12.69 0.18-3.78-0.31-7.54-2.05-11.32-2.02-4.37-6.26-7.15-10.78-7.59-3.02-0.91-6.24-0.87-9.56-0.05-0.64 4.04-2.52 7.73-5.59 10.7 0.81-1.12 1.61-2.22 2.24-3.39 1.48-2.73 1.77-5.98 1.78-9.01 0.03-5.9-3.83-10.97-8.05-14.63-5.39-4.68-12.29-6.15-18.79-4.91-13.22-0.14-20.73 9.87-24.56 22.74 2.06 6.98 4.25 13.95 6.35 21.06 3.92-1.18 8.22-1.15 12.76 0.51z"/>
								</g>
								<g id="&lt;Group&gt;">
									<path id="&lt;Path&gt;" class="s2" d="m286.93 656.52c1.36 0.2 2.6 0.07 3.71-0.27-0.66 6.95-7.49 11.66-14.34 11.42q-0.35-0.01-0.7-0.05c-1.05 0-2.06-0.11-2.98-0.32-4.26-0.97-7.26-3.2-9.58-6.12 2.46 7.24 10.74 11.3 18.06 8.6 5.5-2.03 11.55-7.68 10.58-13.94 3.48-1.68 5.38-5.85 5.44-10.01-0.36-1.87-0.96-3.68-2.07-5.43 2.01 5.98-0.84 13.96-7.71 14.67-0.61 0.05-1.3 1.32-0.41 1.45z"/>
									<path id="&lt;Path&gt;" class="s2" d="m169.23 668.87q-1.88-0.98-3.57-2.49c-4.15-3.7-5.54-8.55-5.18-13.47q-0.19-2.2-0.07-4.41c-2.48 6.44-2.74 13.27 2.14 19.1 4.52 5.4 11.72 5.69 17.78 3.36-3.84 0.43-7.8-0.26-11.1-2.09z"/>
									<path id="&lt;Path&gt;" class="s2" d="m320.13 595.16c6.69 1.88 12.24 6.98 12.74 13.87q0.34 1.44 0.55 2.91c2.79-12.06-8.6-23.07-20.87-18.88 2.61 0.32 5.16 1 7.58 2.1z"/>
									<path id="&lt;Path&gt;" class="s2" d="m183.31 615.38c0.2-1.92 0.66-3.82 1.35-5.62 0.86-4.79 4.02-8.89 8.66-10.48 2.07-1.34 4.37-2.15 6.76-1.76q-0.04-0.1-0.14-0.17c-4.79-3.27-10.52-0.06-13.8 3.9-3.51 4.23-4.57 9.33-2.83 14.13z"/>
								</g>
							</g>
						</g>
					</g>
					<g id="&lt;Group&gt;">
						<path id="&lt;Compound Path&gt;" fill-rule="evenodd" class="s0" d="m301.75 444.83c0.44-3.98 3.1-7.06 6.86-8.31l-3.12-2.09 7.77 1.22c2.06 0.32 4.19 1.22 6.13 2.6l0.09 0.05 0.08 0.04 0.01 0.01 0.34 0.18 0.24 0.31c0.16 0.22 0.28 0.28 0.32 0.29l0.53 0.17 0.08 0.1c1.15-0.76 2.53-1.32 4.03-1.65q-0.1-0.91 0.05-1.9c0.36-2.47 2.2-4.28 3.94-5.48q-0.86-0.78-1.37-1.64c-1.19-1.99-1.39-4.43-0.61-7.45 0.45-1.74 1.51-2.94 2.7-3.83q-0.15-0.23-0.28-0.49-0.08 0.01-0.15 0.01c-1.97 0.01-4.06-0.68-4.87-0.97-4.86-1.76-8.31-7.39-7.86-12.8 0.4-4.77 3.6-9.15 8.35-11.43 1.48-0.71 3.42-1.12 5.32-1.14q1.4 0 2.66 0.26c0.27-1.44 0.89-2.76 1.35-3.61 1.41-2.57 3.99-4.58 7.27-5.64 1.29-0.42 2.66-0.64 3.98-0.65q2.5-0.01 4.46 0.94c1.4 0.68 2.72 1.9 3.31 3.43q0.9-0.13 1.84-0.13c3.15-0.03 6.23 0.97 8.68 2.8 1.43 1.08 2.52 2.54 3.2 4.27 3.08 0.12 6 1.27 8.28 3.27 2.35 2.06 3.44 5.27 3.01 8.49 1.5 0.06 3.04 0.36 4.48 0.9 5.42 2.01 8.07 7.94 8.29 12.93 0.22 4.91-2.68 10.3-7.05 13.1q-0.13 0.09-0.27 0.17c0.84 2.49 0.7 5.45-0.41 8.4-1.17 3.07-3.19 5.61-5.65 7.19 3.6 4.02 4.12 9.85 1.03 14.76-1.64 2.61-4.59 4.62-7.8 5.4-0.12 6.48-4.65 13.48-10.88 16.47-2.67 1.28-5.68 1.96-8.73 1.98q-3.44 0.02-6.43-1.07c-1.54-0.56-3.16-1.68-4.54-3.08-1.82 2.23-4.21 3.89-6.81 4.7q-1.83 0.56-3.68 0.57c-2.4 0.02-4.59-0.68-6.32-2.03-2.55-1.97-3.45-4.36-3.76-6.79-1.52 1.51-3.97 2.37-7.01 2.39-2.77 0.01-5.47-0.71-7.05-1.89-3.06-2.28-4.7-5.72-4.53-9.43 0.16-3.18 1.64-6.13 4.06-8.2q-0.05-0.08-0.1-0.16c-1.1-1.88-1.04-4.18 0.04-6.13-3.1-2.14-3.85-6.22-3.5-9.41zm74.51-37.73q0.61 0 1.22 0.06-0.58-0.06-1.16-0.06-0.03 0-0.06 0zm1.29 0.06q-0.03 0-0.07 0 0.04 0 0.07 0zm-1.3-0.06q0.01 0 0.01 0 0 0-0.01 0zm-11.3-11.2q0.34-0.01 0.69 0-0.06-0.01-0.13-0.01-0.28 0-0.56 0.01zm-0.04 0.01q0.02-0.01 0.04-0.01-0.02 0-0.04 0.01zm-10.34-6.74q0.25-0.01 0.49 0-0.14-0.01-0.28-0.02-0.1 0.01-0.21 0.02zm-3 92.09q0 0 0 0 0 0 0 0zm0 0q-0.4 0.02-0.79 0.01 0.17 0.01 0.35 0.02 0.22-0.01 0.44-0.03zm-6.04-96.14q0.08 0 0.16 0-0.03-0.01-0.06-0.01-0.05 0.01-0.1 0.01zm0.17 0q-0.01 0-0.01 0 0 0 0.01 0zm-14.7 9.19q0.31 0 0.61 0.02-0.26-0.02-0.53-0.02-0.04 0-0.08 0zm0.64 0.02q-0.02 0-0.03 0 0.01 0 0.03 0zm-0.65-0.02q0.01 0 0.01 0 0 0-0.01 0zm-0.5 21.76q-0.17 0.02-0.35 0.02 0.01 0 0.02 0 0.17 0 0.33-0.02zm0.1-0.01q-0.05 0.01-0.1 0.01 0.05 0 0.1-0.01zm0.04 66.29q0.02 0 0.04 0.01 0.06-0.01 0.12-0.02-0.08 0.01-0.16 0.01zm-16.24-6.13q-0.03 0-0.06 0 0.02 0 0.04 0 0.01 0 0.02 0zm-0.06 0q0 0 0 0 0 0 0 0zm-0.68-38.72q0.67-0.04 1.35 0.01-0.51-0.05-1.01-0.04-0.17 0.01-0.34 0.03zm1.37 0.01q-0.01 0-0.02 0 0.01 0 0.02 0z"/>
						<path id="&lt;Path&gt;" class="s7" d="m270.05 385.98c-3.05-4.95-7.26-11.47-8.97-16.46 0 0 3.18 14.62 15.17 31.93q-0.78-0.9-1.51-1.78c-2.31-2.82-10.82-13.94-11.79-15.32 0 0 7.2 15.82 16.85 25.26 0.77 0.76 1.47 1.59 2.27 2.46q0.91 0.85 1.84 1.66l-4.21-2.36c4.37 6.01 15.91 14.84 28.17 22.29l2.81 1.52c2.91 1.58 5.92 3.2 8.86 4.88q0.31 0.18 0.66 0.19c2.21 1.43 3.97 2.83 5.49 4.36q0.02 0.2 0.07 0.39c0.11 0.37 0.43 1.5 1.5 1.96q0.28 0.11 0.58 0.18l0.53 0.25c0.32 0.15 0.84 0.27 1.5-0.03q0.34-0.16 0.68-0.33 0.24-0.02 0.48-0.02c0.59-0.02 1.26-0.42 1.54-1.01 6.12-3.3 12.7-9.77 13.66-18.55 0.81-7.45-1.59-15.98-8.8-17.1-1.18-0.17-2.21 0.71-2.59 1.65q-0.03 0.08-0.06 0.16-3.34 1.24-6.88 1.73l-2.82 0.01c-3.19 0.01-6.49 0.03-9.6-0.73-3.74-0.92-7.35-2.34-10.71-4.21-5.51-3.9-8.21-5.6-11.29-8.89-6.56-7.01-9.17-10.91-16.81-24.86 0 0 1.74 5.9 1.92 6.32-0.33 0.12-2.85-4.43-2.85-4.43 0.82 2.45 4.97 14.16 5.33 14.76 0 0 2.4 5.88 4.35 8.2-0.94-0.76-1.77-1.83-2.21-2.26-5.32-5.26-14.28-19.56-14.28-19.56 0 0 6.9 12.8 7.2 15.55-2.37-1.97-4.36-5.02-6.08-7.81z"/>
						<g id="&lt;Group&gt;">
							<g id="&lt;Group&gt;">
								<path id="&lt;Path&gt;" class="s2" d="m292.17 409.7q-1.87-1.64-3.63-3.5c3.18 3.06 9.93 8.56 9.93 8.56 0 0-4.26-3.28-6.3-5.06z"/>
								<path id="&lt;Path&gt;" class="s3" d="m344.97 427.31c-0.89 8.16-7.05 14.61-13.74 17.96q0.03 0 0.06 0c0.4 0.05-0.05 0.46-0.29 0.47q-0.4 0.01-0.8 0.05-0.43 0.21-0.86 0.41c-0.13 0.06-0.29 0.11-0.44 0.04q-0.08-0.04-0.17-0.08c-0.13-0.07-0.12-0.15-0.04-0.22q-0.48 0.03-0.94-0.15c-0.47-0.2-0.66-0.77-0.77-1.14q-0.07-0.27-0.02-0.55c-5.36-5.65-12.76-8.42-19.23-12.2-5.17-3.02-10.34-6.34-15.25-9.87-2.98-2.15-6.48-4.59-9.09-7.59 1.91 1.54 3.86 3.01 5.88 4.33 2.09 1.37 4.3 2.66 6.62 2.67 0.22 0 0.53-0.19 0.45-0.46q-0.07-0.22-0.15-0.43 0 0 0 0.01c0.19 0.07-0.02-0.31-0.42-0.74-1.01-1.47-2.87-2.45-4.2-3.51-2.74-2.16-5.29-4.89-7.66-7.53-8.81-9.84-15.86-20.79-20.98-33.75-0.43-1.09-0.8-2.25-1.15-3.41 1.87 5.49 4.36 10.44 7.18 15.02 2.26 3.67 4.78 7.42 8.06 9.32 0.22 0.13 0.65 0.13 0.67-0.25 0.08-2.49-1.52-4.87-2.53-7.05 0.28 0.37 0.51 0.66 0.6 0.81 2.07 3.17 4.11 6.36 6.48 9.15 1.3 1.53 3.26 3.67 5.14 3.64 1.46-0.03 0.47-1.9-0.06-2.82-1.92-3.38-4.34-6.51-6.15-10.01q-0.85-1.66-1.65-3.38-1.6-3.76-2.94-7.7c2.45 6.21 6.25 12.4 10.39 17.22q0.09 0.13 0.18 0.25c4.14 5.28 8.83 10.57 14.61 13.69 9.92 5.36 22.09 8.43 34.32 3.51-0.43-0.3 0.37-1.53 1.16-1.41 6.44 0.99 8.45 9.05 7.73 15.7z"/>
								<path id="&lt;Path&gt;" class="s2" d="m272.57 393.74c-0.09-0.15-0.05-0.25 0.03-0.3 3.47 4.79 6.89 9.79 10.85 14.08 4.3 4.64 9.31 8.95 14.29 12.59 4.82 3.53 10.1 6.93 15.43 9.65 3.9 2 7.95 3.88 11.61 6.33-1.4-0.66-2.9-1.23-4.23-1.86-2.4-1.15-4.82-2.27-7.17-3.45-5.3-2.66-10.73-5.83-15.42-9.48-9.93-7.71-18.63-16.57-25.39-27.56z"/>
								<path id="&lt;Path&gt;" class="s2" d="m331.51 429.45c-6.28-0.69-13.46-2.04-19.14-4.84-0.38-0.18 0.15-0.37 0.42-0.26 5.87 2.47 12.58 3.86 18.86 4.92 0.19 0.03-0.01 0.19-0.14 0.18z"/>
								<path id="&lt;Path&gt;" class="s2" d="m324.96 421.32q0.46-0.02 0.91-0.06 0.63 0.02 1.26 0.02c0.15 0.01 0.02 0.2-0.08 0.2q-1.58 0.08-3.16 0.06 0.54-0.1 1.07-0.22z"/>
								<path id="&lt;Path&gt;" class="s2" d="m320.9 421.43c-5.78-0.24-12.27-2.14-17.16-4.79-5.22-2.83-10.74-7.25-14.64-12.08q1.49 1.56 3.03 3.02c3.81 3.64 8.06 6.75 12.62 9.02 4.33 2.15 8.92 3.54 13.58 4.29q1.74 0.28 3.49 0.4-0.46 0.08-0.92 0.14z"/>
								<path id="&lt;Path&gt;" class="s2" d="m296.85 409.46q-3.87-2.89-7.24-6.54c-2.8-3.05-5.58-6.29-7.79-10.01 0.16-0.07 0.45-0.01 0.56 0.15 4.31 6.23 8.91 11.31 14.47 16.4z"/>
								<path id="&lt;Path&gt;" class="s2" d="m305.78 412.85c0.17-0.11 0.44-0.16 0.6-0.07 6.81 4.16 15.02 5.64 23.28 4.13q-2.04 0.79-4.18 1.2c-3.28 0.47-6.72 0.41-10.03-0.3-3.43-1.07-6.69-2.8-9.67-4.96z"/>
								<path id="&lt;Path&gt;" class="s2" d="m296.63 406.56c-8.33-8.14-14.33-16.64-18.67-27.83-0.18-0.46 0.3-0.39 0.53-0.1 4.67 11.17 10.15 19.65 18.14 27.93z"/>
								<path id="&lt;Path&gt;" class="s2" d="m326.81 415.25c-3.65 0.38-7.46 0.5-11.2-0.13q-3.15-0.54-6.2-1.69c-6.51-3.54-16.76-12.4-16.76-12.4 0 0 6.3 5.92 9.9 8.15 3.96 2.44 8.25 4.14 12.63 5.22 3.84 0.94 7.8 0.75 11.66 0.76 0.07 0 0.01 0.09-0.03 0.09z"/>
								<path id="&lt;Path&gt;" class="s2" d="m300.48 424.39c4.28 2.97 9.07 5.46 13.47 8.33 0.06 0.04-0.07 0.12-0.12 0.09-4.5-2.74-9.39-5.2-13.77-8.13-5.06-3.38-10-7.26-14.62-11.29q-1.26-1.1-2.51-2.25c-3.28-3.59-6.7-7.11-9.76-11.01-3.17-4.04-6.18-8.32-8.89-12.96 3.16 4.49 6.1 9.19 9.48 13.3 3.71 4.51 8.01 8.78 12.32 12.53 4.57 3.98 9.41 7.95 14.4 11.39z"/>
								<path id="&lt;Path&gt;" class="s2" d="m285.25 405.67c2.5 2.68 5.3 5.13 8.07 7.52q0.65 0.74 1.31 1.47c-1.84-1.51-3.7-3.02-5.49-4.63q-1.99-2.13-3.89-4.36z"/>
								<path id="&lt;Path&gt;" class="s2" d="m308.79 432.09c3.83 2.22 7.74 4.34 11.58 6.63 0.19 0.11-0.03 0.34-0.2 0.24-3.88-2.22-7.8-4.3-11.69-6.42-3.9-2.12-7.76-4.3-11.28-7.03-0.21-0.16 0.08-0.38 0.26-0.27 3.74 2.33 7.5 4.63 11.33 6.85z"/>
							</g>
						</g>
						<g id="&lt;Group&gt;">
							<g id="&lt;Group&gt;">
								<path id="&lt;Path&gt;" class="s2" d="m351.27 385c1.45 0.71 2.79 2.2 2.53 3.84 3.55-1.03 7.65-0.32 10.64 1.93 1.53 1.15 2.47 2.75 2.92 4.5 2.91-0.18 5.89 0.77 8.15 2.75 2.53 2.21 3 5.84 1.84 8.81 1.98-0.32 4.07-0.07 5.98 0.63 4.39 1.64 6.77 6.67 6.96 11.07 0.19 4.31-2.52 8.96-6.08 11.25q-0.72 0.46-1.55 0.79c2.95 5.1-0.76 13.56-6.69 15.54 4.37 3.15 5.64 8.98 2.56 13.88-1.59 2.54-4.76 4.4-7.9 4.74 0.63 6.24-3.77 13.12-9.57 15.9-4.05 1.95-9.2 2.38-13.42 0.83-1.77-0.65-3.78-2.27-5.14-4.19-1.55 2.67-4.08 4.83-6.99 5.73-2.73 0.84-5.86 0.67-8.19-1.14-2.56-1.97-3.09-4.42-3.15-7.5q-0.84-0.11-1.68-0.6-0.03-0.02-0.06-0.04c-1.26 4.38-9.56 4.17-12.47 2-5.52-4.11-4.68-12.05 0.96-15.47q-0.59-0.53-1.06-1.33c-1.13-1.92-0.38-4.28 1.16-5.69q-0.69-0.23-1.35-0.62c-2.6-1.58-3.27-4.97-2.96-7.76 0.56-4.99 5.21-7.55 9.74-7.12q-0.24-0.17-0.49-0.33c1.9 0.3 3.72 1.16 5.26 2.25q0.17 0.12 0.35 0.2 0.52 0.69 1.16 0.88 0.42 0.54 0.75 1.12c1.54-1.62 3.97-2.51 6.45-2.68-0.48-0.82-0.62-1.87-0.46-3 0.38-2.57 3.19-4.47 5.4-5.46-1.35-0.61-2.53-1.59-3.12-2.58-1.1-1.84-0.92-3.98-0.41-5.95 0.5-1.94 2.08-3 3.74-3.82-1.07-0.58-1.7-1.56-1.84-2.69-1.64 0.57-4.32-0.22-5.49-0.64-4.17-1.52-6.89-6.46-6.53-10.72 0.36-4.3 3.4-7.93 7.17-9.73 2.31-1.11 6.17-1.39 8.74 0-0.49-1.61 0.36-3.75 1.09-5.08 1.27-2.34 3.65-3.9 6.1-4.69 2.18-0.71 4.87-0.83 6.95 0.19z"/>
								<path id="&lt;Path&gt;" class="s4" d="m345.07 385.63c-3.29 0.63-8.88 5.56-7.2 9.42q0.58 0.45 1 1.05-0.2-0.11-0.42-0.2-0.66-0.27-1.34-0.45c-5.96-4-14.25 1.39-14.7 8.58-0.19 3.16 1.62 6.12 3.79 8.23 1.05 1.03 4.9 3.59 7.01 2.96q0-0.66 0.2-1.35 0.12 0.43 0.28 0.84c0.23 0.79 0.64 1.53 1.23 2.1 0.91 1.1 2.1 1.86 3.46 1.94-0.85 0.18-1.72 0.18-2.55-0.08q-0.01-0.01-0.03-0.01c-2.12 1.36-3.26 3.3-3.29 5.59-0.17 1.59 0.25 3.24 1.29 4.54 0.82 1.02 1.86 1.87 3.09 2.34q0.45 0.16 0.89 0.22c-0.77 0.04-1.59-0.12-2.37-0.41q-0.03 0.02-0.06 0.05-0.87 0.53-1.63 1.14c-1.53 0.71-2.75 2.01-3.07 3.78-0.18 1.04-0.28 2.18 0.23 3.15 0.35 0.69 0.88 1.18 1.4 1.7q-1.27-0.27-1.97-1.06c-3.76 0.94-6.88 2.38-7.23 6.76-0.32 4.07 3.61 6.6 7.3 5.29 0.1-0.04 0.15 0.07 0.05 0.11-3.48 1.4-7.78-0.53-8.47-4.44-0.36-2.03 0.08-3.68 1.01-4.95-1.81-1.31-3.57-2.62-5.35-3.9-4.04-0.2-7.63 0.94-8.91 4.71-1 1.72-1.27 3.82-0.48 5.82 0.62 1.56 1.68 3.17 3.36 3.75 0.86 0.29 1.81 0.54 2.74 0.39q0.59-0.11 1.18-0.3c-1.15 0.58-2.38 0.74-3.6 0.52q-0.86 1.3-0.93 2.72c-0.33 1.33 0.03 2.81 1.07 3.82 0.9 0.87 1.92 1.39 3.01 1.71-1.34-0.06-2.61-0.34-3.66-1.08-3.2 3.1-4.61 7.11-2.56 11.37 2.07 4.29 10.82 6.41 13.19 1.45-1.4-1.03-2.42-2.75-1.84-4.41 0.48 1.66 1.43 3.14 3.04 3.9 1.49 0.71 3.2 0.98 4.82 0.72-1.04 0.39-2.07 0.73-3.12 0.75 0.61 1.69 1.17 3.47 2.21 4.94 1.72 2.43 4.89 3.35 7.71 2.9 3.15-0.5 5.73-2.69 7.36-5.42-0.52-0.82-0.91-1.68-1.12-2.53q0.19 0.42 0.42 0.83 0.57 0.97 1.25 1.67-0.01 0.02-0.02 0.04c1.3 1.7 3.16 3.12 4.75 3.88 4.04 1.92 9.33 0.88 13.19-0.96 4.41-2.11 7.55-6.64 8.22-11.43q0.05-0.37 0.07-0.74c0.26-1.16 0.32-2.39 0.2-3.6-0.25-2.4-1.11-4.41-2.17-6.34 2.04 1.85 3.16 4.06 3.54 6.4 3.4-0.61 6.65-3.32 7.88-6.51 1.6-4.18-0.4-8.38-3.51-11.16q-1.54 0.31-3.21-0.04c1.4-0.02 2.9-0.42 4-0.97q0.84-0.44 1.53-1.02c2.18-1.43 3.86-3.72 4.62-6.25 0.55-1.86 0.45-3.55-0.1-5.08q-0.27-1.16-0.79-2.15c-0.71-1.38-1.64-2.57-2.69-3.65 1.63 0.51 2.85 1.34 3.72 2.38q1.03-0.42 1.9-1c2.97-1.97 4.66-6.27 4.81-9.69 0.23-4.97-2.97-9.57-7.13-11.19q-0.6-0.28-1.25-0.38-1.31-0.3-2.66-0.18c-1.07 0.03-2.11 0.31-3.13 0.65q-0.16 0.04-0.32 0.08 0.93-0.51 1.93-0.8c0.88-2.75 0.17-5.99-2-8.13-1.88-1.85-4.2-2.65-6.57-2.67 0.17 1.2 0.15 2.44-0.06 3.63-0.13 0.72-0.35 1.48-0.67 2.21q0.18-1.06 0.14-2.15c0.15-2-0.41-3.88-1.49-5.38q-0.38-0.66-0.85-1.24-0.3-0.45-0.65-0.86c-3.36-3.93-9.1-3.95-13.17-1.42q-1.02 0.44-2.01 1c1.22-1.48 2.8-2.51 4.54-3.1-0.64-3.56-5.5-3.88-8.28-3.35z"/>
								<path id="&lt;Path&gt;" class="s5" d="m367.81 458.46c1.28-0.82 2.27-2.09 2.53-3.58 0.48-2.89-1.23-5.15-2.98-7.24 2.46-0.66 4.08-2.53 4.97-4.91 0.77 1.26 1.87 2.2 3.19 2.71-1.07 0.51-2.49 0.88-3.82 0.9q1.67 0.35 3.21 0.04 0.74 0.67 1.39 1.44c-1.67 1.07-3.07 2.4-3.68 3.57-1.5 2.87-1.28 6.93 1.56 8.96q0.83 0.59 1.69 0.9c-1.5 1.42-3.39 2.45-5.33 2.8-0.33-2-1.2-3.92-2.73-5.59z"/>
								<path id="&lt;Path&gt;" class="s5" d="m354.97 460.99q0.92-0.99 1.72-2.11 0.06 0.09 0.12 0.18c1.31 1.75 3.94 2.59 6.05 1.84 0.93-0.33 1.59-0.85 2.06-1.49 0.89-0.05 1.79-0.32 2.59-0.77 0.82 1.63 1.45 3.36 1.66 5.35 0.12 1.21 0.06 2.44-0.2 3.6q-0.02 0.37-0.07 0.74-0.05 0.28-0.1 0.57c-2.03-5.42-8.12-9.17-13.83-7.91z"/>
								<path id="&lt;Path&gt;" class="s5" d="m350.25 419.02c1.51-1.15 2.69-3.25 3.43-5.22 2.97 0.85 6.73-0.09 9.29-2.24 2.97-2.51 4.02-6.45 4.25-10.47q0.19-0.59 0.29-1.17c0.21-1.19 0.23-2.43 0.06-3.63q1.79 0.01 3.47 0.65c-0.56 0.46-1.05 0.99-1.4 1.5-1.69 2.5-0.41 6 2.36 7.1 1.25 0.5 2.75 0.6 3.9-0.23q0.33-0.25 0.6-0.54-0.01 1.19-0.36 2.32-1 0.29-1.93 0.8 0.16-0.04 0.32-0.08c1.02-0.34 2.06-0.62 3.13-0.65q1.35-0.12 2.66 0.18 0.65 0.1 1.25 0.38c2.19 0.85 4.1 2.53 5.4 4.65-3.47-2.2-7.71-3.05-12.42-1.8-5.9 1.56-8.69 6.24-8.37 11.03-1.64-0.76-3.44-1.09-5.31-0.76-4.46 0.8-6.05 4.46-5.46 8.01-0.94-0.23-1.89-0.22-2.83-0.06 1.1-3 0.05-7.39-2.33-9.77z"/>
								<path id="&lt;Compound Path&gt;" fill-rule="evenodd" class="s5" d="m353.35 388.98c-1.74 0.59-3.32 1.62-4.54 3.1q0.99-0.56 2.01-1c3.46-2.15 8.12-2.45 11.5-0.08-2 0.13-4.34 1.51-6.2 3.07-2.28 1.92-4.51 4.49-5.85 7.38-2.01-1.67-4.51-2.57-7.02-1.9-9.61 2.57-8.17 16.97-1.13 19.79-2.75 2.65-4.29 7.33-2.24 10.27 1.7 2.42 4.25 3.24 6.7 2.85-1.06 1.19-1.94 2.58-2.56 4.04-2.76 6.51-1.13 12.9 4.65 15.85-3.83 1.28-7.51 3.74-6.8 8.33 0.72 4.7 4.2 7.82 8.69 7.92-1.89 3.09-3.61 6.95-0.9 9.99 1.26 1.4 2.68 2.4 4.21 3.08-2.22 0.21-4.45-0.03-6.38-0.95-1.59-0.76-3.45-2.18-4.75-3.88q0.01-0.02 0.02-0.04-0.68-0.7-1.25-1.67-0.23-0.41-0.42-0.83c0.21 0.85 0.6 1.71 1.12 2.53q-0.22 0.37-0.48 0.73-0.11-0.34-0.28-0.68c-1.58-3.11-5.81-6.37-9.01-3.42-2.08 1.91-2.89 5.47-2.24 8.26-1.2-0.5-2.28-1.27-3.06-2.37-1.04-1.47-1.6-3.25-2.21-4.94 1.05-0.02 2.08-0.36 3.12-0.75-1.62 0.26-3.33-0.01-4.82-0.72-1.61-0.76-2.56-2.24-3.04-3.9-0.58 1.66 0.44 3.38 1.84 4.41-2.37 4.96-11.12 2.84-13.19-1.45-2.05-4.26-0.64-8.27 2.56-11.37 1.05 0.74 2.32 1.02 3.66 1.08-1.09-0.32-2.11-0.84-3.01-1.71-1.04-1.01-1.4-2.49-1.07-3.82q0.07-1.42 0.93-2.72c1.22 0.22 2.45 0.06 3.6-0.52q-0.59 0.19-1.18 0.3c-0.93 0.15-1.88-0.1-2.74-0.39-1.68-0.58-2.74-2.19-3.36-3.75-0.79-2-0.52-4.1 0.48-5.82 1.28-3.77 4.87-4.91 8.91-4.71 1.78 1.28 3.54 2.59 5.35 3.9-0.93 1.27-1.37 2.92-1.01 4.95 0.6 3.45 4.02 5.35 7.21 4.79q0.42 0.11 0.88 0.12c3.4 0.03 7.58-2.73 8.92-5.86 0.22-0.5 0.03-0.95-0.3-1.22 0.02-0.68-0.19-1.34-0.75-1.82-2.94-2.54-7.69-0.6-10.05 1.85-1.06 1.1-2.17 2.87-1.46 4.46 0.49 1.1 1.26 1.94 2.31 2.34-3.12 0.17-5.91-2.16-5.64-5.62 0.35-4.38 3.47-5.82 7.23-6.76q0.7 0.79 1.97 1.06c-0.52-0.52-1.05-1.01-1.4-1.7-0.51-0.97-0.41-2.11-0.23-3.15 0.32-1.77 1.54-3.07 3.07-3.78q0.76-0.61 1.63-1.14 0.03-0.03 0.06-0.05c0.78 0.29 1.6 0.45 2.37 0.41q-0.44-0.06-0.89-0.22c-1.23-0.47-2.27-1.32-3.09-2.34-1.04-1.3-1.46-2.95-1.29-4.54 0.03-2.29 1.17-4.23 3.29-5.59q0.02 0 0.03 0.01c0.83 0.26 1.7 0.26 2.55 0.08-1.36-0.08-2.55-0.84-3.46-1.94-0.59-0.57-1-1.31-1.23-2.1q-0.16-0.41-0.28-0.84-0.2 0.69-0.2 1.35c-2.11 0.63-5.96-1.93-7.01-2.96-2.17-2.11-3.98-5.07-3.79-8.23 0.45-7.19 8.74-12.58 14.7-8.58q0.68 0.18 1.34 0.45 0.22 0.09 0.42 0.2-0.42-0.6-1-1.05c-1.68-3.86 3.91-8.79 7.2-9.42 2.78-0.53 7.64-0.21 8.28 3.35zm-32.49 75.04c0.36 3.86 3.83 6.57 7.67 6.35 5.07-0.29 7.93-4.52 8.6-9.21q0.05-0.4-0.12-0.68c0.09-3.07-1.56-6.14-4.98-6.74-5.61-0.99-11.72 4.42-11.17 10.28z"/>
								<path id="&lt;Path&gt;" class="s6" d="m341.22 467.35c1.12 1.4 2.42 2.06 3.87 2.43-0.24 4.63 1.48 9.2 5.19 11.79q-1.46-0.23-2.79-0.85c-1.59-0.76-3.45-2.18-4.75-3.88q0.01-0.02 0.02-0.04-0.68-0.7-1.25-1.67-0.23-0.41-0.42-0.83c0.21 0.85 0.6 1.71 1.12 2.53q-0.22 0.37-0.48 0.73-0.11-0.34-0.28-0.68-0.16-0.31-0.35-0.62c-1.03-3.18-2.83-5.98-5.61-7.98 1.97-2.06 3.28-4.9 4.15-7.7-0.1 2.27 0.14 4.96 1.58 6.77z"/>
								<path id="&lt;Path&gt;" class="s6" d="m346.96 399.26c0.19-3.06 1.57-5.86 3.82-8.16q0.02-0.01 0.04-0.02c2.72-1.69 6.18-2.23 9.18-1.23-5.34 1.42-10.3 4.82-13.04 9.41z"/>
								<path id="&lt;Path&gt;" class="s5" d="m353.35 388.98q-0.91 0.32-1.74 0.79c-0.04-0.35-0.24-0.7-0.56-0.85-7.94-3.82-10.86 3.02-9.29 9.18-4.69-1.6-10.53-1.36-13.51 0.87-6.27 4.69 0.79 13.03 5.8 10.86 0.61 3.58 2.89 6.73 6.26 8.43q0.22 0.19 0.45 0.35c-2.01 0.82-3.67 2.07-4.38 4-1.58 4.23 0.72 7.19 3.92 9.23-1.92 0.17-3.69 0.8-4.88 2.34-1.97 2.52-2.07 5.25-0.74 7.37-2.89-0.26-6.05 0.56-8.19 1.99-1.64 1.09-2.73 2.7-3.14 4.35q-0.12-0.16-0.24-0.32-0.07-0.53-0.03-1.11c0.35-4.38 3.47-5.82 7.23-6.76q0.7 0.79 1.97 1.06c-0.52-0.52-1.05-1.01-1.4-1.7-0.51-0.97-0.41-2.11-0.23-3.15 0.32-1.77 1.54-3.07 3.07-3.78q0.76-0.61 1.63-1.14 0.03-0.03 0.06-0.05c0.78 0.29 1.6 0.45 2.37 0.41q-0.44-0.06-0.89-0.22c-1.23-0.47-2.27-1.32-3.09-2.34-1.04-1.3-1.46-2.95-1.29-4.54 0.03-2.29 1.17-4.23 3.29-5.59q0.02 0 0.03 0.01c0.83 0.26 1.7 0.26 2.55 0.08-1.36-0.08-2.55-0.84-3.46-1.94-0.59-0.57-1-1.31-1.23-2.1q-0.16-0.41-0.28-0.84-0.2 0.69-0.2 1.35c-2.11 0.63-5.96-1.93-7.01-2.96-2.17-2.11-3.98-5.07-3.79-8.23 0.45-7.19 8.74-12.58 14.7-8.58q0.68 0.18 1.34 0.45 0.22 0.09 0.42 0.2-0.42-0.6-1-1.05c-1.68-3.86 3.91-8.79 7.2-9.42 2.78-0.53 7.64-0.21 8.28 3.35z"/>
								<path id="&lt;Path&gt;" class="s6" d="m321.84 446.15c-2.63-2.67-6.42-4.84-8.48-2.26-3.01 3.77 0.47 7.23 4.36 9.23q-0.73 0.16-1.38 0.47c-2.2 1.08-2.86 4.43-1.59 6.46 0.87 1.37 2.2 2.57 3.73 3.42-2.06 0.11-4.01 0.87-5.25 2.4-2.09 2.59-1.86 6.78 0.56 9.13q0.77 0.74 1.64 1.21c-2.78-0.43-5.54-2.04-6.59-4.21-2.05-4.26-0.64-8.27 2.56-11.37 1.05 0.74 2.32 1.02 3.66 1.08-1.09-0.32-2.11-0.84-3.01-1.71-1.04-1.01-1.4-2.49-1.07-3.82q0.07-1.42 0.93-2.72c1.22 0.22 2.45 0.06 3.6-0.52q-0.59 0.19-1.18 0.3c-0.93 0.15-1.88-0.1-2.74-0.39-1.68-0.58-2.74-2.19-3.36-3.75-0.79-2-0.52-4.1 0.48-5.82 1.28-3.77 4.87-4.91 8.91-4.71 1.78 1.28 3.54 2.59 5.35 3.9-0.72 0.99-1.15 2.22-1.13 3.68z"/>
							</g>
							<g id="&lt;Group&gt;">
								<path id="&lt;Path&gt;" class="s2" d="m361.36 455.17q-0.13 0.61-0.45 1.03c2.04 0.51 4.06-0.96 4.68-2.93q0.03-0.1 0.05-0.21 0.16-0.45 0.21-0.87c0.15-1.31-0.19-2.39-0.78-3.34 1.81 1.42 2.13 4.18 0.64 5.99-1.13 1.36-3.34 2.52-5.02 1.62-0.82 0.82-2.2 0.94-3.38 0.54-0.5-0.29-0.95-0.64-1.34-1.13 1.5 1.17 4.05 1.16 4.94-0.72 0.07-0.17 0.5-0.24 0.45 0.02z"/>
								<path id="&lt;Path&gt;" class="s2" d="m376.6 422.97q-0.09-0.63-0.35-1.26c-0.64-1.55-1.87-2.43-3.31-2.82q-0.61-0.27-1.24-0.46c2.07-0.06 4.04 0.55 5.21 2.52 1.08 1.82 0.45 3.89-0.82 5.38 0.51-1.05 0.7-2.24 0.51-3.36z"/>
								<path id="&lt;Path&gt;" class="s2" d="m340.62 458.49c-0.13 2.08 0.76 4.17 2.67 5q0.38 0.24 0.77 0.45c-3.7-0.41-5.69-4.75-3.28-7.82q-0.26 1.17-0.16 2.37z"/>
								<path id="&lt;Path&gt;" class="s2" d="m360.01 421.64q-0.86-0.2-1.74-0.18c-1.44-0.23-2.92 0.26-3.84 1.42-0.58 0.45-1.04 1.02-1.17 1.74q-0.02-0.02-0.03-0.06c-0.45-1.68 1.03-2.99 2.48-3.53 1.55-0.57 3.11-0.36 4.3 0.61z"/>
							</g>
						</g>
					</g>
					<g id="&lt;Group&gt;">
						<path id="&lt;Compound Path&gt;" fill-rule="evenodd" class="s8" d="m188.98 459.51c1.2 1.57 1.56 3.58 0.85 5.39q-0.03 0.07-0.06 0.15c2.4 1.5 4.1 3.9 4.65 6.68 0.66 3.24-0.33 6.49-2.72 8.9-1.24 1.25-3.52 2.25-5.95 2.6-2.68 0.39-4.95-0.04-6.49-1.16 0.05 2.18-0.42 4.4-2.4 6.47-1.35 1.42-3.18 2.33-5.29 2.64q-1.63 0.23-3.32-0.02c-2.39-0.36-4.72-1.51-6.62-3.23-1.02 1.42-2.3 2.62-3.59 3.32q-2.48 1.36-5.51 1.8c-2.68 0.39-5.43 0.19-7.95-0.58-5.88-1.8-10.8-7.35-11.77-13.05-2.93-0.25-5.79-1.63-7.58-3.7-3.37-3.91-3.7-9.12-1.06-13.13-2.38-1.06-4.5-3.03-5.93-5.58-1.38-2.44-1.89-5.03-1.49-7.33q-0.13-0.06-0.26-0.11c-4.22-1.89-7.49-6.25-7.95-10.6-0.47-4.42 1.07-9.99 5.57-12.48 1.2-0.66 2.51-1.14 3.83-1.39-0.81-2.78-0.28-5.75 1.51-7.87 1.74-2.06 4.16-3.47 6.85-3.98 0.37-1.62 1.13-3.05 2.25-4.18 1.91-1.94 4.49-3.23 7.27-3.64q0.82-0.11 1.63-0.13c0.31-1.41 1.31-2.66 2.45-3.45q1.6-1.1 3.8-1.42c1.17-0.17 2.41-0.16 3.59 0.04 3.03 0.5 5.57 1.92 7.15 3.99 0.53 0.69 1.25 1.77 1.67 3q1.07-0.4 2.31-0.58c1.67-0.24 3.44-0.14 4.83 0.29 4.49 1.37 7.89 4.8 8.88 8.95 1.12 4.7-1.17 10.11-5.21 12.31-0.67 0.36-2.42 1.25-4.15 1.5q-0.07 0.01-0.14 0.01-0.08 0.25-0.18 0.47c1.17 0.62 2.26 1.54 2.88 3.01 1.09 2.56 1.24 4.73 0.46 6.64q-0.34 0.82-0.99 1.62c1.7 0.82 3.56 2.18 4.2 4.3q0.26 0.85 0.3 1.67c1.36 0.08 2.65 0.4 3.77 0.91l0.05-0.1 0.45-0.22c0.03-0.02 0.13-0.08 0.24-0.29l0.17-0.31 0.28-0.21 0.07-0.05 0.07-0.05c1.53-1.48 3.28-2.56 5.05-3.12l6.67-2.1-2.46 2.26c3.47 0.59 6.22 2.95 7.14 6.39 0.74 2.76 0.62 6.45-1.82 8.75zm-68.78-32.01q0 0 0 0 0 0 0 0zm0 0q-0.03 0-0.06 0-0.54 0.08-1.07 0.22 0.56-0.14 1.13-0.22zm8.5-11.37q-0.03 0-0.06 0 0.03 0 0.06 0zm-0.06 0q-0.24 0.03-0.48 0.06-0.06 0.02-0.11 0.03 0.29-0.05 0.59-0.09zm7.82-7.24q0 0 0.01 0-0.01 0-0.01 0zm0.01 0q0.21-0.04 0.42-0.07-0.09 0.01-0.19 0.01-0.12 0.03-0.23 0.06zm15.34 80.57q0.2-0.01 0.4-0.03 0.15-0.03 0.3-0.06-0.35 0.06-0.7 0.09zm-7.5-85.4q0 0 0 0 0 0 0 0zm0 0q-0.04 0-0.09 0-0.03 0.01-0.06 0.01 0.08-0.01 0.15-0.01zm13.94 6.15q-0.24 0.04-0.49 0.1 0.29-0.06 0.57-0.11-0.04 0.01-0.08 0.01zm3.33 19.08q0.02 0 0.05 0-0.03 0-0.05 0zm0.05 0q0.17-0.01 0.34-0.03 0.01 0 0.01-0.01-0.18 0.03-0.35 0.04zm8.76 58.35q0 0 0 0 0 0 0 0zm0 0q-0.07 0-0.15 0.01 0.06 0 0.12-0.01 0.02 0 0.03 0zm13.49-7.57q0.02-0.01 0.04-0.01-0.03 0-0.06 0.01 0.01 0 0.02 0zm-4.83-34.16q-0.45 0.07-0.9 0.18 0.6-0.14 1.2-0.2-0.15 0.01-0.3 0.02z"/>
						<path id="&lt;Path&gt;" class="s9" d="m210.85 394.74c2.03-4.76 4.86-11.06 5.69-15.68 0 0-0.84 13.29-9.08 30.12q0.56-0.89 1.09-1.77c1.66-2.78 7.66-13.71 8.33-15.05 0 0-4.22 14.88-11.46 24.48-0.58 0.77-1.08 1.59-1.67 2.47q-0.69 0.86-1.4 1.7l3.4-2.64c-3.05 5.88-12.03 15.18-21.82 23.37l-2.28 1.72c-2.35 1.77-4.78 3.61-7.14 5.48q-0.25 0.19-0.56 0.25c-1.75 1.55-3.11 3.02-4.24 4.57q0 0.18-0.02 0.35c-0.04 0.34-0.17 1.38-1.05 1.92q-0.24 0.15-0.49 0.24l-0.43 0.29c-0.27 0.18-0.71 0.35-1.32 0.18q-0.33-0.1-0.65-0.2-0.21 0.01-0.43 0.04c-0.52 0.07-1.16-0.2-1.49-0.68-5.82-2.09-12.47-6.9-14.49-14.5-1.71-6.45-0.73-14.28 5.46-16.22 1.02-0.31 2.05 0.33 2.5 1.1q0.04 0.07 0.07 0.13 3.12 0.65 6.3 0.61l2.48-0.37c2.8-0.41 5.71-0.84 8.34-1.92 3.18-1.31 6.16-3.04 8.87-5.13 4.33-4.17 6.48-6.03 8.75-9.33 4.84-7.05 6.62-10.83 11.48-24.12 0 0-0.75 5.42-0.85 5.82 0.31 0.06 1.91-4.29 1.91-4.29-0.39 2.27-2.48 13.13-2.71 13.71 0 0-1.33 5.49-2.73 7.79 0.72-0.79 1.31-1.84 1.63-2.28 3.98-5.34 9.96-19.11 9.96-19.11 0 0-4.36 12.17-4.26 14.63 1.82-2.05 3.17-4.99 4.31-7.68z"/>
						<g id="&lt;Group&gt;">
							<g id="&lt;Group&gt;">
								<path id="&lt;Path&gt;" class="s2" d="m194.55 418.57q1.42-1.69 2.72-3.56c-2.39 3.11-7.6 8.85-7.6 8.85 0 0 3.32-3.45 4.88-5.29z"/>
								<path id="&lt;Path&gt;" class="s3" d="m150.43 441.11c1.87 7.06 8.15 11.92 14.49 13.97q-0.03 0.01-0.06 0.01c-0.34 0.09 0.11 0.4 0.32 0.37q0.35-0.04 0.71-0.06 0.41 0.13 0.81 0.25c0.12 0.03 0.27 0.05 0.39-0.03q0.07-0.04 0.15-0.09c0.1-0.08 0.08-0.14 0.01-0.2q0.41-0.03 0.8-0.26c0.39-0.24 0.48-0.76 0.52-1.1q0.03-0.25-0.05-0.48c3.96-5.69 10.1-9.12 15.29-13.31 4.15-3.35 8.26-6.96 12.11-10.72 2.34-2.29 5.09-4.9 6.99-7.89-1.48 1.6-3 3.16-4.6 4.59-1.66 1.48-3.43 2.92-5.47 3.23-0.19 0.04-0.49-0.09-0.46-0.34q0.03-0.2 0.08-0.39 0 0-0.01 0c-0.15 0.08-0.02-0.28 0.28-0.71 0.69-1.42 2.2-2.54 3.23-3.64 2.12-2.27 4-5.01 5.73-7.65 6.45-9.84 11.19-20.42 13.96-32.51 0.24-1 0.41-2.08 0.56-3.14-0.91 5.07-2.44 9.76-4.32 14.17-1.5 3.53-3.21 7.17-5.84 9.27-0.18 0.15-0.56 0.2-0.62-0.13-0.41-2.18 0.68-4.48 1.28-6.54-0.2 0.37-0.36 0.65-0.42 0.79-1.4 3.07-2.77 6.15-4.48 8.93-0.94 1.52-2.38 3.66-4.04 3.88-1.29 0.17-0.66-1.6-0.32-2.49 1.23-3.23 2.95-6.31 4.07-9.63q0.53-1.57 1-3.19 0.91-3.52 1.56-7.17c-1.33 5.79-3.84 11.74-6.84 16.54q-0.06 0.12-0.13 0.24c-2.93 5.21-6.36 10.48-11.02 14-8.03 6.04-18.33 10.37-29.74 7.66 0.34-0.32-0.53-1.3-1.21-1.08-5.53 1.73-6.23 9.09-4.71 14.85z"/>
								<path id="&lt;Path&gt;" class="s2" d="m209.67 401.9c0.06-0.13 0.01-0.22-0.07-0.26-2.42 4.69-4.75 9.54-7.67 13.84-3.16 4.67-7 9.12-10.89 13-3.78 3.75-7.97 7.44-12.3 10.54-3.17 2.28-6.48 4.48-9.38 7.12 1.15-0.77 2.4-1.47 3.48-2.2 1.96-1.33 3.94-2.64 5.85-3.99 4.31-3.05 8.66-6.57 12.31-10.4 7.71-8.11 14.18-17.07 18.67-27.65z"/>
								<path id="&lt;Path&gt;" class="s2" d="m162.56 441.19c5.43-1.44 11.57-3.59 16.2-6.8 0.31-0.22-0.18-0.31-0.4-0.18-4.84 2.96-10.56 5.07-15.95 6.85-0.16 0.05 0.04 0.16 0.15 0.13z"/>
								<path id="&lt;Path&gt;" class="s2" d="m167.24 433.17q-0.4 0.04-0.81 0.06-0.55 0.1-1.1 0.19c-0.13 0.03 0 0.18 0.09 0.17q1.4-0.15 2.79-0.37-0.49-0.02-0.97-0.05z"/>
								<path id="&lt;Path&gt;" class="s2" d="m170.83 432.72c5.05-0.98 10.51-3.52 14.46-6.5 4.22-3.19 8.49-7.82 11.28-12.58q-1.11 1.57-2.27 3.06c-2.87 3.71-6.19 7.01-9.9 9.62-3.53 2.47-7.38 4.31-11.38 5.58q-1.49 0.49-3.02 0.82 0.41 0.01 0.83 0z"/>
								<path id="&lt;Path&gt;" class="s2" d="m190.39 418.98q3.02-3.06 5.5-6.72c2.06-3.06 4.07-6.28 5.53-9.84-0.15-0.05-0.4 0.04-0.47 0.2-2.97 6.06-6.34 11.14-10.56 16.36z"/>
								<path id="&lt;Path&gt;" class="s2" d="m182.99 423.16c-0.16-0.08-0.41-0.09-0.54 0.02-5.44 4.57-12.46 6.96-19.93 6.73q1.9 0.42 3.83 0.5c2.96-0.03 5.98-0.54 8.79-1.6 2.88-1.4 5.52-3.36 7.85-5.65z"/>
								<path id="&lt;Path&gt;" class="s2" d="m190.21 416.4c6.24-8.28 10.39-16.56 12.71-26.99 0.1-0.42-0.32-0.29-0.48-0.01-2.62 10.45-6.31 18.64-12.23 27z"/>
								<path id="&lt;Path&gt;" class="s2" d="m164.81 428.07c3.25-0.15 6.62-0.55 9.83-1.6q2.7-0.9 5.24-2.32c5.25-3.98 13.09-13.15 13.09-13.15 0 0-4.75 6.05-7.63 8.49-3.16 2.68-6.7 4.75-10.42 6.28-3.25 1.34-6.76 1.7-10.16 2.23-0.06 0.01 0.01 0.07 0.05 0.07z"/>
								<path id="&lt;Path&gt;" class="s2" d="m189.2 432.61c-3.38 3.18-7.26 6.01-10.75 9.12-0.05 0.05 0.07 0.1 0.12 0.07 3.59-3.01 7.57-5.84 11.03-9 4-3.65 7.84-7.72 11.36-11.88q0.97-1.14 1.91-2.32c2.41-3.59 4.95-7.15 7.12-10.99 2.25-3.97 4.33-8.14 6.1-12.59-2.19 4.38-4.15 8.9-6.57 12.97-2.66 4.46-5.88 8.79-9.17 12.67-3.49 4.11-7.23 8.25-11.15 11.95z"/>
								<path id="&lt;Path&gt;" class="s2" d="m200.1 414.09c-1.85 2.7-3.98 5.23-6.1 7.7q-0.47 0.74-0.96 1.47c1.42-1.57 2.85-3.15 4.22-4.8q1.46-2.14 2.84-4.37z"/>
								<path id="&lt;Path&gt;" class="s2" d="m182.91 440.48c-3.08 2.47-6.24 4.86-9.31 7.38-0.15 0.13 0.07 0.3 0.21 0.19 3.12-2.47 6.29-4.82 9.43-7.21 3.15-2.38 6.26-4.82 8.99-7.69 0.16-0.17-0.12-0.32-0.26-0.2q-4.47 3.83-9.06 7.53z"/>
							</g>
						</g>
						<g id="&lt;Group&gt;">
							<g id="&lt;Group&gt;">
								<path id="&lt;Path&gt;" class="s2" d="m139.24 404.72c-1.18 0.81-2.16 2.3-1.71 3.71-3.26-0.44-6.78 0.74-9.11 3.12-1.19 1.21-1.8 2.74-1.96 4.35-2.59 0.23-5.09 1.46-6.82 3.51-1.92 2.28-1.85 5.53-0.44 7.99-1.78-0.01-3.59 0.48-5.18 1.36-3.65 2.02-5.06 6.77-4.65 10.67 0.41 3.82 3.42 7.54 6.86 9.08q0.69 0.31 1.47 0.49c-1.92 4.89 2.48 11.84 7.96 12.78-3.43 3.36-3.77 8.66-0.41 12.56 1.75 2.03 4.78 3.24 7.59 3.12 0.27 5.57 5.07 11.05 10.54 12.72 3.82 1.17 8.41 0.86 11.93-1.06 1.47-0.81 3.02-2.5 3.95-4.38 1.73 2.15 4.24 3.71 6.93 4.12 2.51 0.37 5.24-0.19 7.05-2.1 1.98-2.08 2.13-4.31 1.77-7.02q0.72-0.21 1.4-0.75 0.02-0.03 0.04-0.05c1.7 3.69 8.98 2.4 11.25 0.1 4.31-4.35 2.51-11.23-2.91-13.48q0.45-0.55 0.76-1.32c0.73-1.84-0.24-3.81-1.79-4.85q0.58-0.29 1.11-0.73c2.08-1.73 2.21-4.8 1.57-7.22-1.16-4.31-5.6-5.95-9.52-4.97q0.19-0.18 0.38-0.35c-1.63 0.51-3.12 1.52-4.32 2.68q-0.14 0.13-0.28 0.22-0.37 0.67-0.91 0.93-0.29 0.54-0.51 1.09c-1.58-1.23-3.83-1.69-6.03-1.5 0.31-0.79 0.3-1.73 0-2.7-0.68-2.21-3.4-3.51-5.48-4.08 1.11-0.73 2.02-1.74 2.4-2.69 0.73-1.77 0.28-3.62-0.43-5.3-0.7-1.63-2.23-2.36-3.81-2.86 0.87-0.65 1.29-1.6 1.27-2.61 1.52 0.28 3.78-0.77 4.74-1.3 3.47-1.89 5.21-6.6 4.32-10.3-0.89-3.73-4.05-6.52-7.61-7.61-2.18-0.67-5.61-0.4-7.68 1.17 0.21-1.49-0.82-3.25-1.64-4.33-1.44-1.89-3.73-2.94-6-3.32-2.01-0.32-4.39-0.07-6.09 1.11z"/>
								<path id="&lt;Path&gt;" class="s4" d="m144.78 404.44c2.98 0.11 8.56 3.71 7.6 7.33q-0.45 0.47-0.74 1.06 0.16-0.12 0.34-0.24 0.55-0.32 1.12-0.57c4.71-4.31 12.72-0.68 14.07 5.59 0.6 2.75-0.6 5.6-2.23 7.75-0.79 1.04-3.84 3.81-5.77 3.54q-0.09-0.58-0.36-1.17-0.05 0.4-0.14 0.79c-0.09 0.72-0.35 1.42-0.8 2.01-0.65 1.09-1.6 1.91-2.79 2.17 0.77 0.04 1.55-0.08 2.24-0.42q0.01 0 0.03-0.01c2.04 0.91 3.31 2.47 3.64 4.48 0.36 1.38 0.2 2.89-0.54 4.18-0.57 1-1.38 1.88-2.4 2.46q-0.38 0.2-0.76 0.32c0.69-0.08 1.38-0.32 2.04-0.69q0.02 0.02 0.06 0.04 0.83 0.36 1.58 0.79c1.45 0.42 2.69 1.4 3.21 2.92 0.3 0.89 0.53 1.87 0.22 2.8-0.22 0.65-0.62 1.16-1 1.68q1.08-0.4 1.58-1.2c3.44 0.33 6.37 1.19 7.27 4.99 0.82 3.54-2.3 6.29-5.72 5.63-0.09-0.02-0.12 0.08-0.03 0.1 3.25 0.77 6.78-1.5 6.86-5.03 0.04-1.84-0.56-3.23-1.55-4.23 1.42-1.39 2.8-2.78 4.19-4.15 3.53-0.71 6.84-0.19 8.47 2.96 1.11 1.38 1.63 3.2 1.2 5.06-0.34 1.46-1.06 3.01-2.46 3.75-0.71 0.38-1.52 0.71-2.35 0.71q-0.54-0.02-1.09-0.11c1.09 0.36 2.2 0.34 3.24-0.02q0.93 1.03 1.19 2.27c0.46 1.13 0.34 2.48-0.44 3.51-0.68 0.88-1.51 1.47-2.42 1.91 1.17-0.24 2.25-0.65 3.08-1.45 3.23 2.31 5 5.65 3.77 9.66-1.25 4.06-8.68 7.09-11.41 3.04 1.09-1.09 1.75-2.74 1.03-4.12-0.21 1.52-0.85 2.95-2.16 3.83-1.22 0.82-2.69 1.29-4.15 1.28 0.97 0.21 1.92 0.37 2.84 0.24-0.31 1.58-0.56 3.21-1.28 4.65-1.19 2.36-3.85 3.6-6.39 3.58-2.84-0.02-5.41-1.61-7.21-3.79 0.35-0.79 0.58-1.6 0.65-2.38q-0.11 0.4-0.26 0.79-0.37 0.93-0.88 1.63 0.02 0.02 0.03 0.04c-0.92 1.67-2.37 3.17-3.67 4.05-3.29 2.23-8.09 2.02-11.73 0.91-4.16-1.26-7.53-4.84-8.76-8.96q-0.09-0.33-0.16-0.64c-0.38-0.99-0.6-2.06-0.65-3.15-0.1-2.14 0.39-4.02 1.06-5.87-1.56 1.91-2.24 4-2.26 6.11-3.07-0.08-6.3-2.03-7.81-4.68-1.96-3.46-0.76-7.43 1.61-10.29q1.39 0.07 2.81-0.46c-1.23 0.17-2.61 0.02-3.64-0.33q-0.81-0.27-1.49-0.68c-2.11-0.98-3.89-2.76-4.9-4.89-0.73-1.56-0.86-3.06-0.59-4.49q0.09-1.05 0.41-1.99c0.44-1.31 1.1-2.48 1.88-3.57-1.36 0.67-2.33 1.56-2.95 2.59q-0.96-0.23-1.81-0.63c-2.88-1.33-4.93-4.89-5.53-7.88-0.86-4.35 1.34-8.82 4.78-10.8q0.5-0.33 1.05-0.5 1.11-0.44 2.33-0.52c0.94-0.11 1.89 0 2.83 0.16q0.15 0.01 0.3 0.03-0.89-0.33-1.81-0.45c-1.14-2.31-0.95-5.25 0.68-7.42 1.4-1.88 3.34-2.89 5.43-3.22 0 1.07 0.19 2.16 0.53 3.18 0.21 0.61 0.51 1.25 0.88 1.85q-0.29-0.9-0.41-1.86c-0.39-1.75-0.16-3.48 0.6-4.94q0.25-0.63 0.58-1.21 0.21-0.43 0.46-0.84c2.43-3.91 7.48-4.69 11.39-3q0.96 0.24 1.91 0.61c-1.27-1.15-2.8-1.84-4.4-2.13 0.08-3.22 4.31-4.14 6.83-4.05z"/>
								<path id="&lt;Path&gt;" class="s5" d="m134.48 471.57c-1.23-0.55-2.27-1.54-2.7-2.82-0.81-2.47 0.39-4.69 1.66-6.76-2.26-0.26-3.93-1.69-5.03-3.66-0.51 1.2-1.35 2.18-2.45 2.81 1.02 0.31 2.31 0.44 3.48 0.28q-1.42 0.53-2.81 0.46-0.57 0.69-1.04 1.45c1.62 0.72 3.03 1.7 3.72 2.65 1.7 2.33 2.05 5.94-0.18 8.1q-0.65 0.63-1.36 1.02c1.5 1.04 3.3 1.7 5.06 1.75 0.02-1.81 0.53-3.61 1.65-5.28z"/>
								<path id="&lt;Path&gt;" class="s5" d="m146.12 472.08q-0.94-0.75-1.8-1.62-0.04 0.08-0.08 0.17c-0.91 1.71-3.12 2.8-5.07 2.42-0.87-0.16-1.52-0.53-2.02-1.03-0.79 0.08-1.61-0.05-2.38-0.34-0.5 1.55-0.83 3.16-0.74 4.93 0.05 1.09 0.27 2.16 0.65 3.15q0.07 0.31 0.16 0.64 0.08 0.24 0.16 0.48c1.07-5.03 5.93-9.14 11.12-8.8z"/>
								<path id="&lt;Path&gt;" class="s5" d="m144.67 434.52c-1.48-0.82-2.79-2.51-3.71-4.14-2.5 1.15-5.93 0.82-8.47-0.74-2.95-1.8-4.4-5.13-5.14-8.64q-0.24-0.5-0.41-0.99c-0.34-1.02-0.53-2.11-0.53-3.18q-1.58 0.24-2.97 1.03c0.55 0.33 1.05 0.73 1.42 1.13 1.83 1.98 1.17 5.22-1.12 6.57-1.03 0.6-2.34 0.89-3.46 0.31q-0.33-0.17-0.6-0.39 0.16 1.04 0.62 1.99 0.92 0.12 1.81 0.45-0.15-0.02-0.3-0.03c-0.94-0.16-1.89-0.27-2.83-0.16q-1.22 0.08-2.33 0.52-0.55 0.17-1.05 0.5c-1.8 1.04-3.27 2.77-4.12 4.81 2.76-2.39 6.38-3.71 10.68-3.24 5.4 0.59 8.48 4.33 8.84 8.59 1.34-0.89 2.88-1.41 4.57-1.37 4.04 0.1 5.93 3.11 5.88 6.31q1.2-0.47 2.48-0.42c-1.37-2.5-1.03-6.51 0.74-8.91z"/>
								<path id="&lt;Compound Path&gt;" fill-rule="evenodd" class="s5" d="m144.78 404.44c2.98 0.11 8.56 3.71 7.6 7.33q-0.45 0.47-0.74 1.06 0.16-0.12 0.34-0.24 0.55-0.32 1.12-0.57c4.71-4.31 12.72-0.68 14.07 5.59 0.6 2.75-0.6 5.6-2.23 7.75-0.79 1.04-3.84 3.81-5.77 3.54q-0.09-0.58-0.36-1.17-0.05 0.4-0.14 0.79c-0.09 0.72-0.35 1.42-0.8 2.01-0.65 1.09-1.6 1.91-2.79 2.17 0.77 0.04 1.55-0.08 2.24-0.42q0.01 0 0.03-0.01c2.04 0.91 3.31 2.47 3.64 4.48 0.36 1.38 0.2 2.89-0.54 4.18-0.57 1-1.38 1.88-2.4 2.46q-0.38 0.2-0.76 0.32c0.69-0.08 1.38-0.32 2.04-0.69q0.02 0.02 0.06 0.04 0.83 0.36 1.58 0.79c1.45 0.42 2.69 1.4 3.21 2.92 0.3 0.89 0.53 1.87 0.22 2.8-0.22 0.65-0.62 1.16-1 1.68q1.08-0.4 1.58-1.2c3.44 0.33 6.37 1.19 7.27 4.99 0.7 3.01-1.45 5.44-4.21 5.69 0.86-0.48 1.43-1.33 1.72-2.35 0.41-1.5-0.8-2.91-1.89-3.74-2.4-1.84-6.84-2.91-9.08-0.29-0.43 0.5-0.53 1.11-0.42 1.7-0.26 0.29-0.36 0.71-0.1 1.12 1.6 2.57 5.64 4.45 8.63 3.97q0.4-0.07 0.76-0.22c2.88 0.06 5.63-2.07 5.7-5.18 0.04-1.84-0.56-3.23-1.55-4.23 1.42-1.39 2.8-2.78 4.19-4.15 3.53-0.71 6.84-0.19 8.47 2.96 1.11 1.38 1.63 3.2 1.2 5.06-0.34 1.46-1.06 3.01-2.46 3.75-0.71 0.38-1.52 0.71-2.35 0.71q-0.54-0.02-1.09-0.11c1.09 0.36 2.2 0.34 3.24-0.02q0.93 1.03 1.19 2.27c0.46 1.13 0.34 2.48-0.44 3.51-0.68 0.88-1.51 1.47-2.42 1.91 1.17-0.24 2.25-0.65 3.08-1.45 3.23 2.31 5 5.65 3.77 9.66-1.25 4.06-8.68 7.09-11.41 3.04 1.09-1.09 1.75-2.74 1.03-4.12-0.21 1.52-0.85 2.95-2.16 3.83-1.22 0.82-2.69 1.29-4.15 1.28 0.97 0.21 1.92 0.37 2.84 0.24-0.31 1.58-0.56 3.21-1.28 4.65-0.54 1.07-1.38 1.89-2.37 2.49 0.2-2.54-0.99-5.56-3.08-6.97-3.21-2.17-6.5 1.26-7.47 4.21q-0.11 0.33-0.16 0.63-0.27-0.28-0.52-0.57c0.35-0.79 0.58-1.6 0.65-2.38q-0.11 0.4-0.26 0.79-0.37 0.93-0.88 1.63 0.02 0.02 0.03 0.04c-0.92 1.67-2.37 3.17-3.67 4.05-1.57 1.06-3.5 1.57-5.48 1.69 1.25-0.8 2.37-1.88 3.29-3.28 1.98-3.04-0.05-6.21-2.13-8.67 3.94-0.68 6.59-3.89 6.6-8.13 0.01-4.13-3.56-5.8-7.1-6.42 4.7-3.37 5.28-9.21 1.98-14.57-0.74-1.2-1.7-2.31-2.8-3.22 2.22 0.02 4.35-1.04 5.52-3.4 1.42-2.86-0.56-6.77-3.34-8.73 5.82-3.43 5.17-16.29-3.63-17.27-2.29-0.25-4.38 0.87-5.92 2.61-1.57-2.36-3.87-4.33-6.14-5.71-1.84-1.14-4.09-2.04-5.87-1.88 2.67-2.54 6.81-2.89 10.13-1.46q0.96 0.24 1.91 0.61c-1.27-1.15-2.8-1.84-4.4-2.13 0.08-3.22 4.31-4.14 6.83-4.05zm20.57 58.2c-2.94 0.98-3.98 3.91-3.49 6.6q-0.11 0.26-0.02 0.61c1.22 4.04 4.3 7.38 8.8 6.96 3.41-0.32 6.1-3.16 5.9-6.61-0.3-5.23-6.39-9.18-11.19-7.56z"/>
								<path id="&lt;Path&gt;" class="s6" d="m159.07 475.84c-0.8 1.38-1.85 2.14-3.08 2.66 0.82 4.04-0.08 8.3-3 11.06q1.26-0.39 2.34-1.11c1.3-0.88 2.75-2.38 3.67-4.05q-0.01-0.02-0.03-0.04 0.51-0.7 0.88-1.63 0.15-0.39 0.26-0.79c-0.07 0.78-0.3 1.59-0.65 2.38q0.25 0.29 0.52 0.57 0.05-0.3 0.16-0.63 0.1-0.29 0.22-0.59c0.48-2.93 1.69-5.64 3.87-7.77-2.01-1.55-3.53-3.87-4.67-6.22 0.39 1.98 0.53 4.38-0.49 6.16z"/>
								<path id="&lt;Path&gt;" class="s6" d="m144.94 416.69c-0.57-2.67-2.17-4.95-4.45-6.67q-0.02-0.01-0.05-0.01c-2.61-1.13-5.73-1.14-8.24 0.13 4.89 0.55 9.72 2.87 12.74 6.55z"/>
								<path id="&lt;Path&gt;" class="s5" d="m137.95 408.49q0.83 0.16 1.63 0.47c-0.02-0.32 0.12-0.66 0.38-0.83 6.47-4.42 9.96 1.21 9.4 6.85 3.91-2.04 9.08-2.61 12-1.04 6.15 3.29 1.05 11.57-3.65 10.33-0.06 3.23-1.65 6.3-4.39 8.26q-0.17 0.18-0.35 0.36c1.88 0.45 3.51 1.34 4.4 2.93 1.95 3.52 0.32 6.43-2.22 8.65 1.71-0.11 3.35 0.21 4.6 1.41 2.07 1.96 2.52 4.34 1.63 6.38 2.52-0.61 5.4-0.31 7.48 0.67 1.58 0.73 2.76 2.01 3.34 3.41q0.08-0.16 0.17-0.32-0.01-0.48-0.12-0.98c-0.9-3.8-3.83-4.66-7.27-4.99q-0.5 0.8-1.58 1.2c0.38-0.52 0.78-1.03 1-1.68 0.31-0.93 0.08-1.91-0.22-2.8-0.52-1.52-1.76-2.5-3.21-2.92q-0.75-0.43-1.58-0.79-0.04-0.02-0.06-0.04c-0.66 0.37-1.35 0.61-2.04 0.69q0.38-0.12 0.76-0.32c1.02-0.58 1.83-1.46 2.4-2.46 0.74-1.29 0.9-2.8 0.54-4.18-0.33-2.01-1.6-3.57-3.64-4.48q-0.02 0.01-0.03 0.01c-0.69 0.34-1.47 0.46-2.24 0.42 1.19-0.26 2.14-1.08 2.79-2.17 0.45-0.59 0.71-1.29 0.8-2.01q0.09-0.39 0.14-0.79 0.27 0.59 0.36 1.17c1.93 0.27 4.98-2.5 5.77-3.54 1.63-2.15 2.83-5 2.23-7.75-1.35-6.27-9.36-9.9-14.07-5.59q-0.57 0.25-1.12 0.57-0.18 0.12-0.34 0.24 0.29-0.59 0.74-1.06c0.96-3.62-4.62-7.22-7.6-7.33-2.52-0.09-6.75 0.83-6.83 4.05z"/>
								<path id="&lt;Path&gt;" class="s6" d="m173.3 454.6c1.96-2.7 5.01-5.11 7.16-3.12 3.15 2.92 0.55 6.43-2.61 8.71q0.67 0.04 1.28 0.23c2.08 0.66 3.11 3.51 2.26 5.47-0.58 1.32-1.6 2.56-2.83 3.5 1.83-0.17 3.65 0.24 4.94 1.42 2.19 2 2.55 5.72 0.73 8.11q-0.58 0.75-1.28 1.28c2.39-0.74 4.61-2.53 5.24-4.59 1.23-4.01-0.54-7.35-3.77-9.66-0.83 0.8-1.91 1.21-3.08 1.45 0.91-0.44 1.74-1.03 2.42-1.91 0.78-1.03 0.9-2.38 0.44-3.51q-0.26-1.24-1.19-2.27c-1.04 0.36-2.15 0.38-3.24 0.02q0.55 0.09 1.09 0.11c0.83 0 1.64-0.33 2.35-0.71 1.4-0.74 2.12-2.29 2.46-3.75 0.43-1.86-0.09-3.68-1.2-5.06-1.63-3.15-4.94-3.67-8.47-2.96-1.39 1.37-2.77 2.76-4.19 4.15 0.77 0.78 1.31 1.81 1.49 3.09z"/>
							</g>
							<g id="&lt;Group&gt;">
								<path id="&lt;Path&gt;" class="s2" d="m139.72 467.82q0.2 0.51 0.53 0.84c-1.73 0.72-3.7-0.31-4.5-1.96q-0.04-0.08-0.08-0.17-0.2-0.38-0.3-0.75c-0.3-1.13-0.15-2.12 0.25-3.03-1.41 1.49-1.33 3.96 0.23 5.35 1.17 1.05 3.27 1.77 4.63 0.76 0.83 0.61 2.06 0.53 3.05 0.02 0.4-0.32 0.75-0.69 1.03-1.17-1.17 1.23-3.41 1.56-4.44 0.02-0.09-0.14-0.48-0.14-0.4 0.09z"/>
								<path id="&lt;Path&gt;" class="s2" d="m122.01 441.51q0-0.57 0.14-1.16c0.36-1.45 1.33-2.38 2.54-2.92q0.5-0.32 1.04-0.57c-1.84 0.23-3.49 1.02-4.26 2.91-0.71 1.75 0.13 3.49 1.44 4.63-0.58-0.86-0.92-1.88-0.9-2.89z"/>
								<path id="&lt;Path&gt;" class="s2" d="m158.42 467.97c0.39 1.81-0.12 3.77-1.68 4.75q-0.31 0.26-0.63 0.5c3.21-0.86 4.38-4.93 1.85-7.31q0.38 0.99 0.46 2.06z"/>
								<path id="&lt;Path&gt;" class="s2" d="m136.44 438.12q0.73-0.29 1.5-0.38c1.24-0.4 2.61-0.17 3.57 0.73 0.58 0.32 1.06 0.76 1.26 1.38q0.02-0.02 0.03-0.06c0.17-1.54-1.31-2.49-2.66-2.77-1.44-0.3-2.78 0.09-3.7 1.1z"/>
							</g>
						</g>
					</g>
					<g id="&lt;Group&gt;">
						<g id="&lt;Group&gt;">
							<path id="&lt;Path&gt;" class="s10" d="m122.99 724.16l2.59 21.37 21.36 2.68-19.4 9.87 3.93 20.33-15.25-14.59-18.25 9.22 9.28-18.22-14.53-15.31 20.32 4.01z"/>
							<path id="&lt;Path&gt;" class="s11" d="m149.48 749.79c-1.52 1-3.1 1.9-4.66 2.85l-4.74 2.68c-3.16 1.77-6.38 3.45-9.61 5.1l0.44-0.91c0.64 3.39 1.27 6.78 1.77 10.2 0.52 3.42 1.02 6.84 1.34 10.29-0.99-3.32-1.81-6.68-2.6-10.05-0.81-3.35-1.48-6.74-2.16-10.12-0.08-0.38 0.12-0.75 0.44-0.92 3.24-1.64 6.48-3.25 9.79-4.77l4.95-2.25c1.68-0.7 3.34-1.45 5.04-2.1z"/>
							<path id="&lt;Path&gt;" class="s11" d="m125.53 725.75c0.78 3.52 1.38 7.06 1.94 10.61 0.59 3.54 1.04 7.1 1.49 10.66l-0.73-0.74c3.56 0.46 7.11 0.93 10.65 1.53l5.32 0.9c1.76 0.37 3.53 0.67 5.28 1.08-1.8-0.03-3.59-0.17-5.39-0.25l-5.37-0.44c-3.58-0.29-7.14-0.71-10.7-1.14-0.39-0.05-0.69-0.36-0.73-0.74-0.42-3.56-0.83-7.13-1.1-10.71-0.3-3.58-0.57-7.16-0.66-10.76z"/>
							<path id="&lt;Path&gt;" class="s11" d="m95.27 741.1c3.45 0.33 6.87 0.84 10.28 1.38 3.42 0.51 6.81 1.15 10.2 1.8l-0.91 0.44c1.66-3.22 3.34-6.44 5.13-9.59l2.7-4.73c0.96-1.55 1.86-3.13 2.86-4.65-0.65 1.7-1.4 3.35-2.11 5.03l-2.27 4.95c-1.53 3.29-3.16 6.53-4.82 9.76-0.17 0.34-0.55 0.51-0.91 0.44-3.38-0.69-6.76-1.38-10.12-2.2-3.36-0.8-6.71-1.63-10.03-2.63z"/>
							<path id="&lt;Path&gt;" class="s11" d="m100.51 774.62c2.51-6.36 5.47-12.51 8.54-18.59l0.14 0.96q-3.64-3.82-7.14-7.78-1.75-1.97-3.46-3.99c-1.1-1.38-2.25-2.71-3.32-4.12 1.35 1.14 2.62 2.36 3.93 3.54q1.93 1.8 3.82 3.65 3.76 3.71 7.39 7.54c0.25 0.26 0.3 0.66 0.14 0.96-3.13 6.06-6.36 12.06-10.04 17.83z"/>
							<path id="&lt;Path&gt;" class="s11" d="m134.02 780c-1.41-1.08-2.74-2.23-4.11-3.35q-2.01-1.71-3.98-3.47c-2.64-2.33-5.2-4.74-7.75-7.16l0.96 0.14c-6.1 3.05-12.25 5.98-18.63 8.46 5.79-3.65 11.8-6.87 17.87-9.96 0.33-0.17 0.71-0.1 0.96 0.14q3.82 3.64 7.51 7.42 1.84 1.9 3.64 3.83c1.17 1.32 2.39 2.59 3.53 3.95z"/>
						</g>
						<g id="&lt;Group&gt;">
							<path id="&lt;Path&gt;" class="s10" d="m377.88 356.88l1.32 10.91 10.91 1.36-9.91 5.04 2.01 10.39-7.79-7.45-9.32 4.7 4.74-9.3-7.41-7.82 10.37 2.05z"/>
							<path id="&lt;Path&gt;" class="s11" d="m391.41 369.96c-0.79 0.5-1.6 0.95-2.4 1.42l-2.43 1.35q-2.44 1.34-4.92 2.59l0.19-0.38q0.5 2.59 0.92 5.21 0.44 2.61 0.74 5.24-0.7-2.56-1.27-5.14-0.58-2.58-1.08-5.18c-0.03-0.16 0.05-0.31 0.18-0.38q2.48-1.27 4.99-2.45l2.52-1.17c0.85-0.37 1.7-0.76 2.56-1.11z"/>
							<path id="&lt;Path&gt;" class="s11" d="m379.18 357.69c0.36 1.8 0.65 3.61 0.93 5.42q0.41 2.72 0.74 5.45l-0.3-0.31q2.72 0.34 5.44 0.76l2.71 0.44c0.9 0.17 1.81 0.32 2.71 0.51-0.92-0.03-1.83-0.11-2.75-0.16l-2.74-0.25q-2.74-0.26-5.46-0.6c-0.17-0.02-0.29-0.15-0.31-0.31q-0.33-2.73-0.58-5.46-0.26-2.74-0.39-5.49z"/>
							<path id="&lt;Path&gt;" class="s11" d="m363.72 365.52q2.64 0.32 5.24 0.77 2.61 0.42 5.21 0.94l-0.38 0.18q1.26-2.47 2.6-4.91l1.36-2.42c0.48-0.8 0.93-1.61 1.43-2.39-0.35 0.86-0.74 1.7-1.11 2.55l-1.18 2.52q-1.2 2.5-2.48 4.97c-0.07 0.15-0.23 0.22-0.38 0.19q-2.59-0.52-5.17-1.11-2.58-0.58-5.14-1.29z"/>
							<path id="&lt;Path&gt;" class="s11" d="m366.4 382.64q1.01-2.41 2.13-4.77 1.11-2.36 2.3-4.69l0.06 0.41q-1.86-1.95-3.66-3.97l-1.78-2.02c-0.57-0.69-1.17-1.37-1.73-2.08 0.68 0.6 1.33 1.23 1.99 1.84l1.92 1.88q1.92 1.9 3.77 3.86c0.11 0.11 0.12 0.27 0.06 0.4q-1.19 2.33-2.45 4.62c-0.84 1.52-1.69 3.04-2.61 4.52z"/>
							<path id="&lt;Path&gt;" class="s11" d="m383.51 385.39c-0.71-0.56-1.38-1.16-2.07-1.74l-2.01-1.79q-2.01-1.8-3.95-3.67l0.4 0.06q-2.33 1.18-4.7 2.28-2.36 1.12-4.78 2.11 2.24-1.35 4.54-2.59 2.29-1.25 4.62-2.43c0.14-0.07 0.3-0.04 0.4 0.06q1.96 1.86 3.85 3.79l1.87 1.93c0.61 0.66 1.24 1.31 1.83 1.99z"/>
						</g>
						<g id="&lt;Group&gt;">
							<path id="&lt;Path&gt;" class="s10" d="m29.98 592.41l-5.57 4.31 2.83 6.45-6.02-3.8-5.05 4.51 1.54-6.73-5.65-3.58 6.67-0.44 1.87-6.65 2.28 6.38z"/>
							<path id="&lt;Path&gt;" class="s11" d="m27.22 604.15q-0.79-0.42-1.57-0.86l-1.54-0.89q-1.53-0.9-3.03-1.86l0.27-0.02q-1.26 1.13-2.56 2.22-1.3 1.09-2.64 2.12 1.17-1.22 2.41-2.38 1.22-1.17 2.49-2.3c0.07-0.07 0.19-0.07 0.27-0.02q1.51 0.95 2.98 1.94l1.47 1q0.73 0.52 1.45 1.05z"/>
							<path id="&lt;Path&gt;" class="s11" d="m29.96 593.39q-1.31 1.18-2.68 2.3-1.36 1.11-2.75 2.19l0.07-0.27q0.71 1.61 1.37 3.24l0.65 1.64q0.31 0.82 0.6 1.66-0.41-0.78-0.81-1.57l-0.76-1.59q-0.76-1.59-1.46-3.2c-0.05-0.1-0.02-0.21 0.06-0.27q1.4-1.08 2.82-2.11 1.42-1.04 2.89-2.02z"/>
							<path id="&lt;Path&gt;" class="s11" d="m20.58 587.46q0.69 1.56 1.3 3.14 0.62 1.57 1.19 3.17l-0.23-0.15q1.78-0.12 3.56-0.18l1.78-0.05q0.89-0.01 1.78 0-0.88 0.13-1.77 0.23l-1.77 0.18q-1.77 0.16-3.55 0.27c-0.1 0-0.19-0.06-0.22-0.15q-0.57-1.6-1.09-3.21-0.53-1.61-0.98-3.25z"/>
							<path id="&lt;Path&gt;" class="s11" d="m12.04 594.55q1.66-0.24 3.33-0.39 1.66-0.16 3.33-0.28l-0.2 0.17q0.46-1.66 0.98-3.31l0.52-1.64q0.28-0.82 0.58-1.64-0.17 0.85-0.36 1.7l-0.4 1.68q-0.42 1.67-0.89 3.33-0.05 0.15-0.2 0.17-1.67 0.11-3.34 0.16-1.67 0.07-3.35 0.05z"/>
							<path id="&lt;Path&gt;" class="s11" d="m16.15 604.86q0.12-0.85 0.27-1.7l0.33-1.7q0.33-1.69 0.72-3.38l0.1 0.25q-1.41-0.9-2.8-1.84-1.38-0.93-2.73-1.94 1.48 0.79 2.92 1.65 1.44 0.85 2.85 1.74 0.13 0.09 0.1 0.24-0.38 1.69-0.82 3.36l-0.45 1.67q-0.24 0.83-0.49 1.65z"/>
						</g>
						<g id="&lt;Group&gt;">
							<path id="&lt;Path&gt;" class="s12" d="m469.6 493.45l-12.09 10.71 7.46 14.33-14.37-7.76-10.88 11.1 2.5-15.65-13.48-7.33 15.21-2.04 3.26-15.5 6.19 14.25z"/>
							<path id="&lt;Path&gt;" class="s11" d="m465.07 520.74c-1.29-0.47-2.52-1.05-3.79-1.57q-1.87-0.83-3.71-1.72-3.68-1.78-7.27-3.73l1-0.15c-3.64 3.67-7.38 7.26-11.48 10.51 3.16-4.16 6.68-7.97 10.28-11.69 0.27-0.28 0.68-0.33 1-0.16q3.6 1.94 7.11 4.04 1.75 1.05 3.47 2.16c1.13 0.77 2.29 1.49 3.39 2.31z"/>
							<path id="&lt;Path&gt;" class="s11" d="m469.7 495.69c-3.59 4.07-7.52 7.76-11.53 11.35l0.19-1.02c2.47 4.79 4.82 9.63 6.71 14.72-3.08-4.47-5.7-9.17-8.21-13.94-0.18-0.35-0.09-0.77 0.19-1.02 4.05-3.55 8.18-7.01 12.65-10.09z"/>
							<path id="&lt;Path&gt;" class="s11" d="m447.31 483.55c2.66 4.5 4.87 9.19 6.97 13.92l-0.88-0.49q4.04-0.55 8.12-0.89 2.03-0.18 4.08-0.29c1.37-0.03 2.73-0.13 4.1-0.11-1.32 0.37-2.66 0.63-3.99 0.95q-2.01 0.42-4.02 0.78-4.03 0.71-8.08 1.22c-0.37 0.06-0.73-0.16-0.88-0.49-2.03-4.77-3.95-9.59-5.42-14.6z"/>
							<path id="&lt;Path&gt;" class="s11" d="m428.84 501.1c4.99-1.33 10.04-2.17 15.1-2.88l-0.71 0.67q0.81-3.88 1.8-7.72 0.5-1.92 1.06-3.83c0.41-1.26 0.76-2.54 1.22-3.79-0.08 1.33-0.27 2.64-0.4 3.97q-0.26 1.97-0.57 3.92-0.64 3.92-1.46 7.79c-0.07 0.36-0.37 0.62-0.71 0.67-5.08 0.64-10.17 1.17-15.33 1.2z"/>
							<path id="&lt;Path&gt;" class="s11" d="m439.82 524.08c0.02-1.34 0.15-2.65 0.22-3.98q0.16-1.98 0.38-3.95c0.28-2.63 0.66-5.24 1.07-7.85l0.43 0.87c-4.48-2.47-8.9-5.05-13.08-8.07 4.81 1.86 9.38 4.17 13.89 6.59 0.32 0.17 0.48 0.53 0.43 0.88-0.43 2.6-0.88 5.2-1.43 7.79q-0.4 1.94-0.87 3.87c-0.35 1.28-0.64 2.58-1.04 3.85z"/>
						</g>
						<g id="&lt;Group&gt;">
							<path id="&lt;Path&gt;" class="s12" d="m87.83 440.3l-8.04 1.68-0.32 8.2-4.38-7.05-7.6 2.16 5.05-6.28-4.1-6.63 7.22 2.94 5.35-6.03-0.86 7.86z"/>
							<path id="&lt;Path&gt;" class="s11" d="m78.95 451.2c-0.45-0.54-0.85-1.1-1.27-1.65q-0.62-0.84-1.21-1.7-1.17-1.71-2.26-3.47l0.48 0.18c-2.54 0.7-5.1 1.35-7.72 1.75 2.44-1.04 4.95-1.84 7.48-2.57 0.19-0.06 0.38 0.03 0.48 0.18q1.1 1.76 2.12 3.57 0.51 0.91 0.99 1.83c0.3 0.63 0.63 1.24 0.91 1.88z"/>
							<path id="&lt;Path&gt;" class="s11" d="m87.31 441.31c-2.61 0.89-5.27 1.53-7.95 2.11l0.34-0.41c-0.12 2.74-0.3 5.47-0.75 8.19-0.23-2.75-0.2-5.49-0.11-8.22 0.01-0.2 0.16-0.37 0.34-0.41 2.69-0.54 5.38-1.03 8.13-1.26z"/>
							<path id="&lt;Path&gt;" class="s11" d="m80.49 430.31c0.04 2.66-0.17 5.28-0.44 7.9l-0.26-0.44q1.92 0.78 3.81 1.65 0.94 0.44 1.87 0.91c0.61 0.33 1.24 0.63 1.84 0.98-0.68-0.17-1.34-0.39-2-0.58q-0.99-0.33-1.97-0.68-1.96-0.7-3.87-1.49c-0.18-0.07-0.29-0.26-0.27-0.44 0.31-2.62 0.68-5.23 1.29-7.81z"/>
							<path id="&lt;Path&gt;" class="s11" d="m67.92 433.4c2.53 0.67 4.97 1.57 7.39 2.54l-0.49 0.11q1.34-1.51 2.74-2.95 0.71-0.72 1.43-1.42c0.5-0.46 0.98-0.93 1.5-1.37-0.37 0.57-0.79 1.1-1.18 1.65q-0.61 0.8-1.24 1.59-1.27 1.57-2.6 3.07c-0.13 0.14-0.32 0.18-0.49 0.11-2.4-0.99-4.78-2.04-7.06-3.33z"/>
							<path id="&lt;Path&gt;" class="s11" d="m66.97 446.31c0.35-0.59 0.73-1.14 1.1-1.71q0.57-0.83 1.16-1.64 1.19-1.63 2.45-3.2l-0.03 0.5c-1.35-2.22-2.65-4.47-3.73-6.86 1.65 2.03 3.08 4.2 4.46 6.41 0.1 0.16 0.08 0.35-0.03 0.49q-1.26 1.57-2.59 3.08-0.67 0.76-1.36 1.49c-0.48 0.48-0.93 0.97-1.43 1.44z"/>
						</g>
						<g id="&lt;Group&gt;">
							<path id="&lt;Path&gt;" class="s13" d="m402.98 751.61l-14.01-8.05-11.21 11.64 2.78-16.1-13.99-6.77 15.63-2.62 2.66-15.11 6.78 13.77 15.73-1.85-11.54 10.41z"/>
							<path id="&lt;Path&gt;" class="s11" d="m375.66 756.01c0.04-1.37 0.19-2.73 0.28-4.09q0.2-2.04 0.46-4.07 0.51-4.05 1.21-8.08l0.47 0.91c-4.65-2.29-9.25-4.69-13.62-7.54 4.94 1.67 9.68 3.79 14.35 6.02 0.35 0.16 0.53 0.54 0.47 0.9q-0.69 4.03-1.57 8.02-0.44 2-0.94 3.98c-0.37 1.32-0.68 2.65-1.11 3.95z"/>
							<path id="&lt;Path&gt;" class="s11" d="m400.88 752.42c-5-2.1-9.75-4.65-14.43-7.31l1.03-0.15c-3.75 3.87-7.6 7.64-11.82 11.05 3.26-4.34 6.88-8.32 10.6-12.22 0.27-0.29 0.7-0.34 1.03-0.15 4.66 2.71 9.25 5.52 13.59 8.78z"/>
							<path id="&lt;Path&gt;" class="s11" d="m405.26 727.33c-3.42 3.95-7.16 7.54-10.98 11.04l0.19-1q1.8 3.67 3.43 7.42 0.81 1.88 1.57 3.78c0.47 1.28 0.99 2.54 1.41 3.85-0.77-1.13-1.45-2.32-2.17-3.48q-1.04-1.77-2.02-3.56-1.95-3.59-3.73-7.27c-0.17-0.34-0.08-0.75 0.19-0.99 3.87-3.45 7.83-6.8 12.11-9.79z"/>
							<path id="&lt;Path&gt;" class="s11" d="m382.75 715.42c2.84 4.3 5.24 8.82 7.53 13.39l-0.86-0.46q3.94-0.47 7.89-0.75 1.98-0.14 3.96-0.22c1.33-0.02 2.65-0.09 3.99-0.05-1.29 0.35-2.59 0.59-3.89 0.88q-1.95 0.39-3.9 0.71-3.92 0.65-7.85 1.1c-0.36 0.05-0.7-0.15-0.86-0.46-2.23-4.61-4.34-9.27-6.01-14.14z"/>
							<path id="&lt;Path&gt;" class="s11" d="m364.46 733.14c1.27-0.41 2.55-0.71 3.83-1.06q1.93-0.48 3.87-0.9 3.88-0.83 7.78-1.48l-0.69 0.68c0.92-5.03 1.96-10.04 3.5-14.96-0.24 5.15-0.98 10.21-1.84 15.26-0.06 0.36-0.34 0.62-0.69 0.68-2.6 0.43-5.22 0.83-7.84 1.13q-1.97 0.24-3.95 0.41c-1.32 0.08-2.64 0.21-3.97 0.24z"/>
						</g>
					</g>
				</g>
			</g>
			<g id="&lt;Group&gt;">
				<g id="&lt;Group&gt;">
					<g id="&lt;Group&gt;">
						<path id="&lt;Path&gt;" class="s14" d="m202.42 405.74c6.11-15.83 15.2-36.01 17.24-53.15 1.42-11.88 0.4-34.64-14.24-39.87-13.08-4.67-22.16 8.34-23.58 19.83-2.13 17.22 6.23 35.92 12.23 51.69 1.45 3.82 7.87 20.48 8.35 21.5z"/>
						<path id="&lt;Path&gt;" class="s15" d="m201.85 392.04c6.12-15.83 15.21-36.02 17.25-53.15 1.42-11.88 0.4-34.64-14.24-39.87-13.08-4.67-22.16 8.34-23.58 19.83-2.13 17.22 6.23 35.92 12.23 51.69 1.45 3.82 7.87 20.48 8.34 21.5z"/>
						<path id="&lt;Path&gt;" class="s16" d="m201.69 376.11c4.68-12.11 9.41-24.79 10.97-37.9 1.09-9.09 2.53-29.27-8.67-33.27-10.01-3.57-16.96 6.38-18.04 15.17-1.63 13.17 4.77 27.48 9.36 39.55 1.1 2.92 6.85 15.23 6.38 16.45z"/>
					</g>
					<g id="&lt;Group&gt;">
						<path id="&lt;Path&gt;" class="s14" d="m296.4 405.16c6.12-15.83 15.21-36.02 17.25-53.15 1.42-11.89 0.4-34.64-14.25-39.87-13.07-4.67-22.15 8.34-23.57 19.83-2.13 17.21 6.23 35.92 12.23 51.69 1.45 3.81 7.87 20.47 8.34 21.5z"/>
						<path id="&lt;Path&gt;" class="s15" d="m295.84 391.46c6.12-15.83 15.2-36.02 17.25-53.15 1.42-11.89 0.4-34.64-14.24-39.87-13.08-4.67-22.16 8.34-23.58 19.83-2.13 17.21 6.23 35.92 12.23 51.69 1.45 3.81 7.87 20.48 8.34 21.5z"/>
						<path id="&lt;Path&gt;" class="s16" d="m295.68 375.52c4.68-12.1 9.4-24.78 10.97-37.89 1.09-9.09 2.53-29.27-8.68-33.27-10-3.58-16.95 6.38-18.04 15.17-1.62 13.17 4.77 27.48 9.37 39.55 1.1 2.91 6.85 15.23 6.38 16.44z"/>
					</g>
					<g id="&lt;Group&gt;">
						<g id="&lt;Group&gt;">
							<g id="&lt;Group&gt;">
								<path id="&lt;Path&gt;" class="s17" d="m312.82 262.84c0 0-0.2-12.79 8.27-11.76 8.31 1 18.15 26.01 20.52 41.21 2.27 14.61 3.59 51-2.73 57.56 0 0-5.16 4.24-7.92-6.52-2.76-10.76-6.92-49.3-18.51-56.92z"/>
								<path id="&lt;Path&gt;" class="s18" d="m337.06 350.63c-0.16-3.56 0-7.14-0.03-10.69-0.04-4.98-0.2-9.96-0.67-14.92-0.91-9.49-3.5-18.88-6.4-27.94-2.87-8.95-6.71-17.63-8.88-26.78-1.5-6.33-2.16-12.75-2.01-19.19-6.41 1.08-6.25 11.73-6.25 11.73l-0.37 23.57c11.59 7.62 15.75 46.16 18.51 56.92 1.71 6.67 4.34 7.57 6.1 7.3z"/>
								<path id="&lt;Compound Path&gt;" fill-rule="evenodd" class="s19" d="m336.55 351.05c-1.83 0.01-4.34-1.3-5.96-7.62-0.61-2.37-1.3-6.12-2.09-10.47-2.75-15.1-7.35-40.37-16.26-46.23l-0.18-0.12 0.38-23.77c-0.01-0.27-0.07-6.98 3.22-10.35 1.43-1.45 3.27-2.06 5.47-1.8 8.38 1.01 18.43 25.9 20.86 41.54 2.13 13.73 3.79 51.02-2.83 57.89-0.08 0.06-1.15 0.92-2.61 0.93zm-23.71-64.85c9.07 6.25 13.49 30.52 16.42 46.62 0.79 4.34 1.47 8.08 2.07 10.42 1.2 4.62 3 7.06 5.22 7.05 1.19-0.01 2.08-0.73 2.1-0.74 6.13-6.38 4.81-42.87 2.58-57.2-1.19-7.71-4.33-17.85-8-25.83-4.2-9.15-8.63-14.64-12.19-15.06q-2.94-0.36-4.83 1.58c-3.07 3.13-3 9.73-3 9.8z"/>
							</g>
						</g>
						<g id="&lt;Group&gt;">
							<g id="&lt;Group&gt;">
								<path id="&lt;Path&gt;" class="s17" d="m170.42 263.73c0 0 0.05-12.8-8.42-11.67-8.29 1.11-17.82 26.24-20.01 41.46-2.08 14.64-2.94 51.05 3.44 57.53 0 0 5.22 4.17 7.85-6.62 2.63-10.79 6.31-49.38 17.8-57.15z"/>
								<path id="&lt;Path&gt;" class="s18" d="m166.55 253.14c-1.98 7.44-4.15 14.83-6.21 22.24-2.32 8.35-4.47 16.75-5.97 25.28-1.56 8.89-2.44 17.93-2.86 26.94q-0.5 10.71 0.09 21.41c0.62-1.09 1.19-2.57 1.68-4.58 2.63-10.79 6.31-49.38 17.8-57.15l-0.66-23.55c0 0 0.02-7.64-3.87-10.59z"/>
								<path id="&lt;Compound Path&gt;" fill-rule="evenodd" class="s19" d="m147.78 352.22c-1.46 0.01-2.54-0.84-2.58-0.87-6.73-6.82-5.54-44.12-3.59-57.88 2.25-15.67 11.98-40.68 20.34-41.79 2.19-0.29 4.06 0.29 5.51 1.73 3.33 3.33 3.34 10.03 3.35 10.32l0.66 23.75-0.17 0.12c-8.84 5.97-13.12 31.3-15.7 46.43-0.74 4.36-1.36 8.12-1.94 10.5-1.55 6.34-4.05 7.68-5.88 7.69zm-2.07-1.45c0 0 0.91 0.69 2.07 0.69 2.22-0.02 3.99-2.48 5.12-7.12 0.58-2.35 1.21-6.1 1.95-10.44 2.73-16.13 6.85-40.46 15.84-46.82l-0.66-23.34c0-0.08-0.02-6.69-3.12-9.79q-1.91-1.9-4.86-1.51c-3.53 0.47-7.91 6.02-11.99 15.21-3.56 8.04-6.57 18.21-7.68 25.93-2.05 14.36-2.92 50.86 3.33 57.19z"/>
							</g>
							<g id="&lt;Group&gt;">
								<g id="&lt;Group&gt;">
									<path id="&lt;Path&gt;" class="s20" d="m141.26 336.73q0.09 0.79 0.18 1.57 0-0.01 0-0.02-0.06-0.83-0.18-1.55z"/>
									<path id="&lt;Path&gt;" class="s19" d="m141.07 338.35l0.1-0.01-0.1 0.01v-0.02q-0.1-0.77-0.19-1.56l0.76-0.11q0.13 0.79 0.2 1.59l-0.22 0.03 0.22-0.02-0.56 0.06 0.16-0.02z"/>
								</g>
							</g>
						</g>
						<g id="&lt;Group&gt;">
							<path id="&lt;Path&gt;" class="s17" d="m316.73 288.59c-0.16-12.94-0.65-30.58-1.9-50.47-0.9-14.11-2.18-29.35-4-44.83-1.44-12.32-3.23-24.78-5.44-36.97-7.2-39.57-20.97-76.55-34.77-101.89-10.72-19.64-21.46-32.3-29.22-33.75-7.59 1.52-17.94 13.89-28.23 33.07-13.69 25.54-27.26 63.16-34.06 103.36-2.09 12.3-3.73 24.89-5.03 37.31-1.61 15.48-2.69 30.69-3.41 44.79-0.99 19.88-1.26 37.52-1.28 50.42 0.01 13.78 0.28 22.19 0.28 22.19 26.3 21.38 72.12 20.41 72.12 20.41l3.09-0.02c0 0 45.83 0.41 71.85-21.3 0 0 0.19-8.46 0-22.32z"/>
							<path id="&lt;Path&gt;" class="s21" d="m170.67 239.21c-0.99 19.88-1.26 37.52-1.28 50.42 20.9 9.3 77.64 28.15 147.34-1.04-0.16-12.94-0.65-30.58-1.9-50.47-67.29 27.55-122.25 10.5-144.16 1.09z"/>
							<path id="&lt;Path&gt;" class="s4" d="m270.62 54.43c-10.72-19.64-21.46-32.3-29.22-33.75-7.59 1.52-17.94 13.89-28.23 33.07 12.01 4.04 32.66 8.04 57.45 0.68z"/>
							<path id="&lt;Path&gt;" class="s11" d="m169.39 289.63c0.01 13.78 0.28 22.19 0.28 22.19 26.3 21.38 72.12 20.41 72.12 20.41l3.09-0.02c0 0 45.83 0.41 71.85-21.3 0 0 0.19-8.46 0-22.32-69.7 29.19-126.44 10.34-147.34 1.04z"/>
							<g id="&lt;Group&gt;">
								<path id="&lt;Path&gt;" class="s22" d="m217.8 251.72h0.01z"/>
								<path id="&lt;Path&gt;" class="s22" d="m299.61 196.91q-0.04 0.19-0.09 0.4 0.12-0.04 0.24-0.08-0.09-0.19-0.15-0.32z"/>
								<path id="&lt;Path&gt;" class="s22" d=""/>
								<path id="&lt;Path&gt;" class="s22" d="m243.34 253.66q0-0.01 0.11-0.57-0.09 0-0.18 0 0.04 0.29 0.07 0.57z"/>
								<path id="&lt;Path&gt;" class="s22" d=""/>
								<path id="&lt;Path&gt;" class="s22" d=""/>
								<path id="&lt;Path&gt;" class="s22" d="m210.18 204.34c-7.8-1.28-14.84-2.96-21.02-4.76 0 0.03 2.02 28.5 3.28 47.15q0.17 0.05 0.35 0.1c1.52-5.36 9.16-31.26 17.48-42.1q-0.09-0.38-0.09-0.39z"/>
								<path id="&lt;Path&gt;" class="s22" d="m210.27 204.73q0.11-0.17 0.24-0.33-0.16-0.03-0.33-0.06 0 0.01 0.09 0.39z"/>
								<path id="&lt;Path&gt;" class="s22" d=""/>
								<path id="&lt;Path&gt;" class="s22" d="m189.16 199.58c-5.83-1.69-10.9-3.49-15.08-5.16-1.61 15.48-2.69 30.69-3.41 44.79q0.07 0.03 0.11 0.04c3.37-15.24 13.79-32.56 18.38-39.67z"/>
								<path id="&lt;Path&gt;" class="s22" d="m233.31 206.67c-8.16-0.31-15.78-1.13-22.8-2.27q-0.13 0.16-0.24 0.33c0.7 3.46 5.96 29.6 7.53 46.99h0.01c0.03-0.13 8.82-32.18 15.5-45.05z"/>
								<path id="&lt;Path&gt;" class="s22" d="m276.52 203.27c-7.84 1.53-15.4 2.51-22.66 3.04 0.01 0.03 10.6 26.91 12.78 44.98 0.01-0.07 5.09-33.77 9.95-47.87q-0.04-0.08-0.07-0.15z"/>
								<path id="&lt;Path&gt;" class="s22" d="m299.76 197.23c1.87 4.13 12.64 28.03 15 40.01-0.88-13.86-2.15-28.78-3.93-43.95q-5.6 2.16-11.07 3.94z"/>
								<path id="&lt;Path&gt;" class="s22" d="m293.24 245.62h0.02q-0.01-0.02-0.01-0.03-0.01 0.03-0.01 0.03z"/>
								<path id="&lt;Path&gt;" class="s22" d="m276.65 203.24q-0.07 0.01-0.13 0.03 0.03 0.07 0.07 0.15 0.02-0.09 0.06-0.18z"/>
								<g id="&lt;Group&gt;">
									<path id="&lt;Path&gt;" class="s22" d="m170.78 239.25c5.36 2.3 12.68 5.05 21.66 7.48-1.26-18.65-3.28-47.12-3.28-47.15-4.59 7.11-15.01 24.43-18.38 39.67z"/>
									<g id="&lt;Group&gt;">
										<path id="&lt;Path&gt;" class="s22" d="m192.79 246.83c7.3 1.97 15.69 3.73 25.01 4.89-1.57-17.39-6.83-43.53-7.53-46.99-8.32 10.84-15.96 36.74-17.48 42.1z"/>
										<path id="&lt;Path&gt;" class="s22" d="m233.31 206.67c-6.68 12.87-15.47 44.92-15.5 45.05 7.85 0.96 16.38 1.51 25.46 1.37-2-15.4-9.96-46.42-9.96-46.42z"/>
										<path id="&lt;Path&gt;" class="s22" d="m293.25 245.59c-4.94-15.1-14.12-36.35-16.66-42.17-4.86 14.1-9.94 47.8-9.95 47.87 8.52-1.21 17.41-3.04 26.6-5.67q0 0 0.01-0.03z"/>
										<path id="&lt;Path&gt;" class="s22" d="m299.52 197.31c-3 13.83-6.17 47.12-6.27 48.28q0 0.01 0.01 0.03c7.02-2.02 14.21-4.5 21.57-7.5q-0.04-0.44-0.07-0.88c-2.36-11.98-13.13-35.88-15-40.01q-0.12 0.04-0.24 0.08z"/>
										<path id="&lt;Path&gt;" class="s22" d="m253.86 206.31c-4.26 11.58-9.64 42.23-10.41 46.78 7.37-0.12 15.12-0.68 23.19-1.8-2.18-18.07-12.77-44.95-12.78-44.98z"/>
									</g>
								</g>
								<path id="&lt;Path&gt;" class="s22" d="m233.31 206.67c0 0 7.96 31.02 9.96 46.42q0.09 0 0.18 0c0.77-4.55 6.15-35.2 10.41-46.78-7.16 0.53-14.03 0.61-20.55 0.36z"/>
								<path id="&lt;Path&gt;" class="s22" d="m293.25 245.59c0.1-1.16 3.27-34.45 6.27-48.28-7.84 2.53-15.47 4.47-22.87 5.93q-0.04 0.09-0.06 0.18c2.54 5.82 11.72 27.07 16.66 42.17z"/>
							</g>
							<path id="&lt;Compound Path&gt;" fill-rule="evenodd" class="s23" d="m278.06 328.98c-16.14 3.65-30.1 3.91-32.71 3.93l-4.03 0.02c-4.75 0.03-47.14-0.29-72.08-20.57l-0.24-0.19-0.01-0.32c0-0.02-0.29-8.53-0.28-22.22 0.01-16.88 0.44-33.86 1.27-50.46 0.78-15.52 1.93-30.6 3.42-44.82 1.38-13.25 3.07-25.82 5.02-37.36 6.17-36.48 18.94-75.2 34.15-103.57 10.55-19.7 20.99-31.88 28.7-33.42h0.25c7.86 1.47 18.68 13.9 29.7 34.09 15.53 28.5 28.23 65.72 34.85 102.11 2.1 11.58 3.93 24.03 5.46 37 1.66 14.18 3 29.27 3.99 44.88 1.04 16.55 1.68 33.54 1.91 50.5 0.14 11.5 0.04 19.36-0.01 22.2l-0.01 0.47-0.25 0.2c-11.11 9.27-25.84 14.54-39.1 17.53zm-108.46-17.12l0.03 0.02c24.77 20.15 66.96 20.47 71.68 20.44l4.04-0.03c4.73-0.03 46.92-0.87 71.43-21.32l0.03-0.06v-0.14c0.05-2.84 0.15-10.69 0-22.18-0.23-16.95-0.87-33.93-1.91-50.48-0.98-15.59-2.32-30.67-3.98-44.84-1.53-12.96-3.36-25.39-5.45-36.96-6.61-36.33-19.29-73.48-34.79-101.92-10.93-20.04-21.59-32.35-29.26-33.78h-0.04c-7.49 1.49-17.81 13.57-28.27 33.1-15.18 28.32-27.92 66.96-34.08 103.38-1.95 11.53-3.64 24.09-5.02 37.32-1.49 14.22-2.64 29.29-3.41 44.79-0.84 16.59-1.27 33.56-1.28 50.43 0 13.72 0.28 22.14 0.28 22.19z"/>
							<path id="&lt;Path&gt;" class="s18" d="m180.71 285.02c-0.19-24.91 0.43-49.83 2.21-74.67 1.74-24.36 4.27-48.87 9.04-72.84 4.7-23.6 12.07-46.37 20.5-68.87 5.2-13.88 10.63-28.21 18.48-40.95-5.55 5.74-11.67 14.69-17.77 26.06-13.69 25.54-27.26 63.16-34.06 103.36-2.09 12.3-3.73 24.89-5.03 37.31-1.62 15.48-2.69 30.69-3.41 44.79-0.99 19.88-1.26 37.52-1.28 50.42 0.01 13.78 0.28 22.19 0.28 22.19 3.62 2.94 7.62 5.46 11.81 7.62q-0.63-17.2-0.77-34.42z"/>
							<path id="&lt;Path&gt;" class="s18" d="m314.83 238.12c-0.9-14.11-2.18-29.35-4-44.83-1.44-12.32-3.23-24.78-5.44-36.97-7.2-39.56-20.97-76.55-34.77-101.89-9.1-16.68-18.22-28.32-25.52-32.34 10.23 15.18 17.85 32.1 23.93 49.32 7.37 20.9 12.53 42.53 16.91 64.24 4.94 24.54 8.82 49.28 11.53 74.17 2.85 26.29 4.42 52.74 4.41 79.2q0 15.81-0.79 31.61c5.6-2.61 10.94-5.8 15.64-9.72 0 0 0.18-8.46 0-22.32-0.16-12.94-0.65-30.58-1.9-50.47z"/>
						</g>
						<g id="&lt;Group&gt;">
							<g id="&lt;Group&gt;">
								<path id="&lt;Path&gt;" class="s17" d="m251.01 264.19c0 0-4.65-5.55-10.19 1.03-5.53 6.57-13.81 37.21-7.85 68.33 1.23 6.35 2.56 12.77 4.63 18.91 1.1 3.26 2.5 7.24 4.99 9.76 4.24 4.27 9.87 1.26 12.34-3.28 2.73-5.04 4.15-10.23 5.31-15.82 1.04-5.05 1.58-10.19 1.97-15.33 2.82-36.56-4.6-53.25-11.2-63.6z"/>
								<path id="&lt;Path&gt;" class="s18" d="m251.01 264.19c0 0-2.47-2.94-5.95-2 2.53 5.44 3.42 11.64 3.83 17.56 0.49 7.12 0.19 14.26 0.03 21.39-0.18 8.06 0.21 16.11 0.27 24.17 0.09 12.87-0.07 25.75 0.08 38.62 2.31-0.76 4.4-2.67 5.66-4.99 2.73-5.04 4.15-10.23 5.31-15.82 1.04-5.05 1.58-10.19 1.97-15.33 2.82-36.56-4.6-53.25-11.2-63.6z"/>
								<path id="&lt;Compound Path&gt;" fill-rule="evenodd" class="s19" d="m247.24 364.66c-1.81 0.01-3.5-0.74-4.92-2.17-2.64-2.67-4.11-7.03-5.08-9.91-2.17-6.41-3.54-13.15-4.65-18.95-3.34-17.44-2.05-33.3-0.38-43.51 2.12-13.08 5.71-22.06 8.32-25.15 1.86-2.22 3.84-3.35 5.88-3.36 2.89-0.02 4.81 2.24 4.9 2.33 6.75 10.57 14.1 27.34 11.29 63.88-0.34 4.28-0.86 9.89-1.99 15.37-1.05 5.11-2.43 10.57-5.34 15.93-1.79 3.3-5.01 5.52-8.03 5.54zm-0.83-102.28q-2.72 0.03-5.3 3.08c-5.06 6.02-13.81 36.42-7.75 68.02 1.1 5.78 2.46 12.48 4.61 18.85 0.95 2.82 2.39 7.08 4.89 9.61q1.94 1.96 4.37 1.95c2.76-0.02 5.71-2.08 7.37-5.14 2.86-5.27 4.22-10.67 5.25-15.71 1.13-5.44 1.65-11.02 1.98-15.28 2.8-36.31-4.49-52.94-11.14-63.36 0 0-1.76-2.03-4.28-2.02z"/>
							</g>
						</g>
					</g>
				</g>
				<path id="&lt;Path&gt;" class="s11" d="m279.61 133.86c0.69 21.52-16.2 39.53-37.72 40.22-21.52 0.69-39.53-16.2-40.22-37.72-0.69-21.52 16.2-39.53 37.72-40.22 21.52-0.69 39.53 16.2 40.22 37.72z"/>
				<path id="&lt;Path&gt;" class="s24" d="m275.54 133.63c0.62 19.28-14.51 35.41-33.79 36.03-19.28 0.62-35.42-14.51-36.03-33.79-0.62-19.28 14.51-35.42 33.79-36.03 19.28-0.62 35.41 14.51 36.03 33.79z"/>
				<path id="&lt;Path&gt;" class="s25" d="m271.62 132.79c0.54 17.13-12.9 31.46-30.03 32.01-17.13 0.55-31.46-12.89-32.01-30.02-0.55-17.13 12.89-31.46 30.02-32.01 17.13-0.55 31.47 12.89 32.02 30.02z"/>
				<path id="&lt;Path&gt;" class="s26" d="m218.52 143.89c0.33-4.42 1.33-8.78 2.91-12.93q-1.39-0.24-2.78-0.42c-2.35-0.31-4.81-0.49-7.16-0.07q-0.21 1.89-0.15 3.85c0.22 7.02 3.07 13.34 7.57 18.06-0.5-2.79-0.6-5.66-0.39-8.49z"/>
				<path id="&lt;Path&gt;" class="s26" d="m237.9 105.99c-10.45 0.34-19.36 6.48-23.71 15.23 2.27 0.53 4.48 1.56 6.47 2.53q1.65 0.82 3.27 1.71c2.48-4.47 5.91-8.42 9.75-11.76 3.17-2.76 6.72-5.2 10.5-7.18q-3.04-0.62-6.28-0.53z"/>
				<path id="&lt;Path&gt;" class="s27" d="m237.48 41.41c-0.98-1.53-3.37-1.2-4.74-0.57-5.76 2.65-8.59 8.33-10.82 14.01-6.83 10.99-10.9 28.39-1.4 29.91 8.8 1.4 13.49-10.83 15.51-17.24 2.22-7.04 5.87-19.22 1.45-26.11z"/>
				<path id="&lt;Path&gt;" class="s27" d="m219.75 92.73q-0.35-0.67-0.86-1.01c-0.24-0.87-1.26-1.34-2.06-1.43-1.18-0.14-2.26 0.28-3.21 0.97-0.92 0.66-1.74 1.47-2.28 2.48-0.49 0.93-0.65 1.9-0.68 2.93-0.04 1.1 0.58 1.91 1.44 2.35 1.34 1.22 3.2 0.53 4.57-0.62q0.1-0.04 0.2-0.08c1.91-0.89 3.96-3.4 2.88-5.59z"/>
			</g>
		</g>
	</g>
</svg>